<?xml version="1.0" encoding="utf-8" standalone="no"?>
<!DOCTYPE svg PUBLIC "-//W3C//DTD SVG 1.1//EN"
  "http://www.w3.org/Graphics/SVG/1.1/DTD/svg11.dtd">
<svg xmlns:xlink="http://www.w3.org/1999/xlink" width="2112.5304pt" height="373.824pt" viewBox="0 0 2112.5304 373.824" xmlns="http://www.w3.org/2000/svg" version="1.1">
 <metadata>
  <rdf:RDF xmlns:dc="http://purl.org/dc/elements/1.1/" xmlns:cc="http://creativecommons.org/ns#" xmlns:rdf="http://www.w3.org/1999/02/22-rdf-syntax-ns#">
   <cc:Work>
    <dc:type rdf:resource="http://purl.org/dc/dcmitype/StillImage"/>
    <dc:date>2026-06-16T19:53:21.025505</dc:date>
    <dc:format>image/svg+xml</dc:format>
    <dc:creator>
     <cc:Agent>
      <dc:title>Matplotlib v3.11.0, https://matplotlib.org/</dc:title>
     </cc:Agent>
    </dc:creator>
   </cc:Work>
  </rdf:RDF>
 </metadata>
 <defs>
  <style type="text/css">*{stroke-linejoin: round; stroke-linecap: butt}</style>
 </defs>
 <g id="figure_1">
  <g id="patch_1">
   <path d="M 0 373.824 
L 2112.5304 373.824 
L 2112.5304 0 
L 0 0 
z
" style="fill: #ffffff"/>
  </g>
  <g id="axes_1">
   <g id="patch_2">
    <path d="M 48.412332 224.76168 
L 124.111692 224.76168 
L 124.111692 149.06232 
L 48.412332 149.06232 
z
" clip-path="url(#p4447ea702a)" style="fill: #1b1f24; stroke: #0d0f12; stroke-width: 1.2; stroke-linejoin: miter"/>
   </g>
   <g id="patch_3">
    <path d="M 243.127908 158.314464 
L 314.621748 158.314464 
L 314.621748 86.820624 
L 243.127908 86.820624 
z
" clip-path="url(#p4447ea702a)" style="fill: #f2b84b; stroke: #96722e; stroke-width: 1.1; stroke-linejoin: miter"/>
   </g>
   <g id="patch_4">
    <path d="M 402.937668 184.388688 
L 456.768324 184.388688 
L 456.768324 130.558032 
L 402.937668 130.558032 
z
" clip-path="url(#p4447ea702a)" style="fill: #ec6248; stroke: #923c2c; stroke-width: 1.1; stroke-linejoin: miter"/>
   </g>
   <g id="patch_5">
    <path d="M 516.486708 184.388688 
L 570.317364 184.388688 
L 570.317364 130.558032 
L 516.486708 130.558032 
z
" clip-path="url(#p4447ea702a)" style="fill: #ce6e58; stroke: #7f4436; stroke-width: 1.1; stroke-linejoin: miter"/>
   </g>
   <g id="patch_6">
    <path d="M 630.035748 184.388688 
L 683.866404 184.388688 
L 683.866404 130.558032 
L 630.035748 130.558032 
z
" clip-path="url(#p4447ea702a)" style="fill: #af7b68; stroke: #6c4c40; stroke-width: 1.1; stroke-linejoin: miter"/>
   </g>
   <g id="patch_7">
    <path d="M 743.584788 184.388688 
L 797.415444 184.388688 
L 797.415444 130.558032 
L 743.584788 130.558032 
z
" clip-path="url(#p4447ea702a)" style="fill: #918778; stroke: #59534a; stroke-width: 1.1; stroke-linejoin: miter"/>
   </g>
   <g id="patch_8">
    <path d="M 857.133828 184.388688 
L 910.964484 184.388688 
L 910.964484 130.558032 
L 857.133828 130.558032 
z
" clip-path="url(#p4447ea702a)" style="fill: #739388; stroke: #475b54; stroke-width: 1.1; stroke-linejoin: miter"/>
   </g>
   <g id="patch_9">
    <path d="M 970.682868 184.388688 
L 1024.513524 184.388688 
L 1024.513524 130.558032 
L 970.682868 130.558032 
z
" clip-path="url(#p4447ea702a)" style="fill: #54a098; stroke: #34635e; stroke-width: 1.1; stroke-linejoin: miter"/>
   </g>
   <g id="patch_10">
    <path d="M 1084.231908 184.388688 
L 1138.062564 184.388688 
L 1138.062564 130.558032 
L 1084.231908 130.558032 
z
" clip-path="url(#p4447ea702a)" style="fill: #47a19d; stroke: #2c6361; stroke-width: 1.1; stroke-linejoin: miter"/>
   </g>
   <g id="patch_11">
    <path d="M 1197.780948 184.388688 
L 1251.611604 184.388688 
L 1251.611604 130.558032 
L 1197.780948 130.558032 
z
" clip-path="url(#p4447ea702a)" style="fill: #4a9698; stroke: #2d5d5e; stroke-width: 1.1; stroke-linejoin: miter"/>
   </g>
   <g id="patch_12">
    <path d="M 1311.329988 184.388688 
L 1365.160644 184.388688 
L 1365.160644 130.558032 
L 1311.329988 130.558032 
z
" clip-path="url(#p4447ea702a)" style="fill: #4e8b92; stroke: #30565a; stroke-width: 1.1; stroke-linejoin: miter"/>
   </g>
   <g id="patch_13">
    <path d="M 1424.879028 184.388688 
L 1478.709684 184.388688 
L 1478.709684 130.558032 
L 1424.879028 130.558032 
z
" clip-path="url(#p4447ea702a)" style="fill: #51808d; stroke: #324f57; stroke-width: 1.1; stroke-linejoin: miter"/>
   </g>
   <g id="patch_14">
    <path d="M 1538.428068 184.388688 
L 1592.258724 184.388688 
L 1592.258724 130.558032 
L 1538.428068 130.558032 
z
" clip-path="url(#p4447ea702a)" style="fill: #557587; stroke: #344853; stroke-width: 1.1; stroke-linejoin: miter"/>
   </g>
   <g id="patch_15">
    <path d="M 1651.977108 184.388688 
L 1705.807764 184.388688 
L 1705.807764 130.558032 
L 1651.977108 130.558032 
z
" clip-path="url(#p4447ea702a)" style="fill: #586a82; stroke: #364150; stroke-width: 1.1; stroke-linejoin: miter"/>
   </g>
   <g id="patch_16">
    <path d="M 1862.253108 120.044232 
L 1916.924868 120.044232 
L 1916.924868 65.372472 
L 1862.253108 65.372472 
z
" clip-path="url(#p4447ea702a)" style="fill: #1f8a8c; stroke: #135556; stroke-width: 1.1; stroke-linejoin: miter"/>
   </g>
   <g id="patch_17">
    <path d="M 1862.253108 254.620872 
L 1916.924868 254.620872 
L 1916.924868 199.949112 
L 1862.253108 199.949112 
z
" clip-path="url(#p4447ea702a)" style="fill: #c0492f; stroke: #772d1d; stroke-width: 1.1; stroke-linejoin: miter"/>
   </g>
   <g id="patch_18">
    <path d="M 235.978524 165.463848 
L 307.472364 165.463848 
L 307.472364 93.970008 
L 235.978524 93.970008 
z
" clip-path="url(#p4447ea702a)" style="fill: #f2b84b; stroke: #96722e; stroke-width: 1.1; stroke-linejoin: miter"/>
   </g>
   <g id="patch_19">
    <path d="M 397.04994 190.276416 
L 450.880596 190.276416 
L 450.880596 136.44576 
L 397.04994 136.44576 
z
" clip-path="url(#p4447ea702a)" style="fill: #ec6248; stroke: #923c2c; stroke-width: 1.1; stroke-linejoin: miter"/>
   </g>
   <g id="patch_20">
    <path d="M 510.59898 190.276416 
L 564.429636 190.276416 
L 564.429636 136.44576 
L 510.59898 136.44576 
z
" clip-path="url(#p4447ea702a)" style="fill: #ce6e58; stroke: #7f4436; stroke-width: 1.1; stroke-linejoin: miter"/>
   </g>
   <g id="patch_21">
    <path d="M 624.14802 190.276416 
L 677.978676 190.276416 
L 677.978676 136.44576 
L 624.14802 136.44576 
z
" clip-path="url(#p4447ea702a)" style="fill: #af7b68; stroke: #6c4c40; stroke-width: 1.1; stroke-linejoin: miter"/>
   </g>
   <g id="patch_22">
    <path d="M 737.69706 190.276416 
L 791.527716 190.276416 
L 791.527716 136.44576 
L 737.69706 136.44576 
z
" clip-path="url(#p4447ea702a)" style="fill: #918778; stroke: #59534a; stroke-width: 1.1; stroke-linejoin: miter"/>
   </g>
   <g id="patch_23">
    <path d="M 851.2461 190.276416 
L 905.076756 190.276416 
L 905.076756 136.44576 
L 851.2461 136.44576 
z
" clip-path="url(#p4447ea702a)" style="fill: #739388; stroke: #475b54; stroke-width: 1.1; stroke-linejoin: miter"/>
   </g>
   <g id="patch_24">
    <path d="M 964.79514 190.276416 
L 1018.625796 190.276416 
L 1018.625796 136.44576 
L 964.79514 136.44576 
z
" clip-path="url(#p4447ea702a)" style="fill: #54a098; stroke: #34635e; stroke-width: 1.1; stroke-linejoin: miter"/>
   </g>
   <g id="patch_25">
    <path d="M 1078.34418 190.276416 
L 1132.174836 190.276416 
L 1132.174836 136.44576 
L 1078.34418 136.44576 
z
" clip-path="url(#p4447ea702a)" style="fill: #47a19d; stroke: #2c6361; stroke-width: 1.1; stroke-linejoin: miter"/>
   </g>
   <g id="patch_26">
    <path d="M 1191.89322 190.276416 
L 1245.723876 190.276416 
L 1245.723876 136.44576 
L 1191.89322 136.44576 
z
" clip-path="url(#p4447ea702a)" style="fill: #4a9698; stroke: #2d5d5e; stroke-width: 1.1; stroke-linejoin: miter"/>
   </g>
   <g id="patch_27">
    <path d="M 1305.44226 190.276416 
L 1359.272916 190.276416 
L 1359.272916 136.44576 
L 1305.44226 136.44576 
z
" clip-path="url(#p4447ea702a)" style="fill: #4e8b92; stroke: #30565a; stroke-width: 1.1; stroke-linejoin: miter"/>
   </g>
   <g id="patch_28">
    <path d="M 1418.9913 190.276416 
L 1472.821956 190.276416 
L 1472.821956 136.44576 
L 1418.9913 136.44576 
z
" clip-path="url(#p4447ea702a)" style="fill: #51808d; stroke: #324f57; stroke-width: 1.1; stroke-linejoin: miter"/>
   </g>
   <g id="patch_29">
    <path d="M 1532.54034 190.276416 
L 1586.370996 190.276416 
L 1586.370996 136.44576 
L 1532.54034 136.44576 
z
" clip-path="url(#p4447ea702a)" style="fill: #557587; stroke: #344853; stroke-width: 1.1; stroke-linejoin: miter"/>
   </g>
   <g id="patch_30">
    <path d="M 1646.08938 190.276416 
L 1699.920036 190.276416 
L 1699.920036 136.44576 
L 1646.08938 136.44576 
z
" clip-path="url(#p4447ea702a)" style="fill: #586a82; stroke: #364150; stroke-width: 1.1; stroke-linejoin: miter"/>
   </g>
   <g id="patch_31">
    <path d="M 1855.524276 126.773064 
L 1910.196036 126.773064 
L 1910.196036 72.101304 
L 1855.524276 72.101304 
z
" clip-path="url(#p4447ea702a)" style="fill: #1f8a8c; stroke: #135556; stroke-width: 1.1; stroke-linejoin: miter"/>
   </g>
   <g id="patch_32">
    <path d="M 1855.524276 261.349704 
L 1910.196036 261.349704 
L 1910.196036 206.677944 
L 1855.524276 206.677944 
z
" clip-path="url(#p4447ea702a)" style="fill: #c0492f; stroke: #772d1d; stroke-width: 1.1; stroke-linejoin: miter"/>
   </g>
   <g id="patch_33">
    <path d="M 228.82914 172.613232 
L 300.32298 172.613232 
L 300.32298 101.119392 
L 228.82914 101.119392 
z
" clip-path="url(#p4447ea702a)" style="fill: #f2b84b; stroke: #96722e; stroke-width: 1.1; stroke-linejoin: miter"/>
   </g>
   <g id="patch_34">
    <path d="M 391.162212 196.164144 
L 444.992868 196.164144 
L 444.992868 142.333488 
L 391.162212 142.333488 
z
" clip-path="url(#p4447ea702a)" style="fill: #ec6248; stroke: #923c2c; stroke-width: 1.1; stroke-linejoin: miter"/>
   </g>
   <g id="patch_35">
    <path d="M 504.711252 196.164144 
L 558.541908 196.164144 
L 558.541908 142.333488 
L 504.711252 142.333488 
z
" clip-path="url(#p4447ea702a)" style="fill: #ce6e58; stroke: #7f4436; stroke-width: 1.1; stroke-linejoin: miter"/>
   </g>
   <g id="patch_36">
    <path d="M 618.260292 196.164144 
L 672.090948 196.164144 
L 672.090948 142.333488 
L 618.260292 142.333488 
z
" clip-path="url(#p4447ea702a)" style="fill: #af7b68; stroke: #6c4c40; stroke-width: 1.1; stroke-linejoin: miter"/>
   </g>
   <g id="patch_37">
    <path d="M 731.809332 196.164144 
L 785.639988 196.164144 
L 785.639988 142.333488 
L 731.809332 142.333488 
z
" clip-path="url(#p4447ea702a)" style="fill: #918778; stroke: #59534a; stroke-width: 1.1; stroke-linejoin: miter"/>
   </g>
   <g id="patch_38">
    <path d="M 845.358372 196.164144 
L 899.189028 196.164144 
L 899.189028 142.333488 
L 845.358372 142.333488 
z
" clip-path="url(#p4447ea702a)" style="fill: #739388; stroke: #475b54; stroke-width: 1.1; stroke-linejoin: miter"/>
   </g>
   <g id="patch_39">
    <path d="M 958.907412 196.164144 
L 1012.738068 196.164144 
L 1012.738068 142.333488 
L 958.907412 142.333488 
z
" clip-path="url(#p4447ea702a)" style="fill: #54a098; stroke: #34635e; stroke-width: 1.1; stroke-linejoin: miter"/>
   </g>
   <g id="patch_40">
    <path d="M 1072.456452 196.164144 
L 1126.287108 196.164144 
L 1126.287108 142.333488 
L 1072.456452 142.333488 
z
" clip-path="url(#p4447ea702a)" style="fill: #47a19d; stroke: #2c6361; stroke-width: 1.1; stroke-linejoin: miter"/>
   </g>
   <g id="patch_41">
    <path d="M 1186.005492 196.164144 
L 1239.836148 196.164144 
L 1239.836148 142.333488 
L 1186.005492 142.333488 
z
" clip-path="url(#p4447ea702a)" style="fill: #4a9698; stroke: #2d5d5e; stroke-width: 1.1; stroke-linejoin: miter"/>
   </g>
   <g id="patch_42">
    <path d="M 1299.554532 196.164144 
L 1353.385188 196.164144 
L 1353.385188 142.333488 
L 1299.554532 142.333488 
z
" clip-path="url(#p4447ea702a)" style="fill: #4e8b92; stroke: #30565a; stroke-width: 1.1; stroke-linejoin: miter"/>
   </g>
   <g id="patch_43">
    <path d="M 1413.103572 196.164144 
L 1466.934228 196.164144 
L 1466.934228 142.333488 
L 1413.103572 142.333488 
z
" clip-path="url(#p4447ea702a)" style="fill: #51808d; stroke: #324f57; stroke-width: 1.1; stroke-linejoin: miter"/>
   </g>
   <g id="patch_44">
    <path d="M 1526.652612 196.164144 
L 1580.483268 196.164144 
L 1580.483268 142.333488 
L 1526.652612 142.333488 
z
" clip-path="url(#p4447ea702a)" style="fill: #557587; stroke: #344853; stroke-width: 1.1; stroke-linejoin: miter"/>
   </g>
   <g id="patch_45">
    <path d="M 1640.201652 196.164144 
L 1694.032308 196.164144 
L 1694.032308 142.333488 
L 1640.201652 142.333488 
z
" clip-path="url(#p4447ea702a)" style="fill: #586a82; stroke: #364150; stroke-width: 1.1; stroke-linejoin: miter"/>
   </g>
   <g id="patch_46">
    <path d="M 1848.795444 133.501896 
L 1903.467204 133.501896 
L 1903.467204 78.830136 
L 1848.795444 78.830136 
z
" clip-path="url(#p4447ea702a)" style="fill: #1f8a8c; stroke: #135556; stroke-width: 1.1; stroke-linejoin: miter"/>
   </g>
   <g id="patch_47">
    <path d="M 1848.795444 268.078536 
L 1903.467204 268.078536 
L 1903.467204 213.406776 
L 1848.795444 213.406776 
z
" clip-path="url(#p4447ea702a)" style="fill: #c0492f; stroke: #772d1d; stroke-width: 1.1; stroke-linejoin: miter"/>
   </g>
   <g id="patch_48">
    <path d="M 221.679756 179.762616 
L 293.173596 179.762616 
L 293.173596 108.268776 
L 221.679756 108.268776 
z
" clip-path="url(#p4447ea702a)" style="fill: #f2b84b; stroke: #96722e; stroke-width: 1.1; stroke-linejoin: miter"/>
   </g>
   <g id="patch_49">
    <path d="M 385.274484 202.051872 
L 439.10514 202.051872 
L 439.10514 148.221216 
L 385.274484 148.221216 
z
" clip-path="url(#p4447ea702a)" style="fill: #ec6248; stroke: #923c2c; stroke-width: 1.1; stroke-linejoin: miter"/>
   </g>
   <g id="patch_50">
    <path d="M 498.823524 202.051872 
L 552.65418 202.051872 
L 552.65418 148.221216 
L 498.823524 148.221216 
z
" clip-path="url(#p4447ea702a)" style="fill: #ce6e58; stroke: #7f4436; stroke-width: 1.1; stroke-linejoin: miter"/>
   </g>
   <g id="patch_51">
    <path d="M 612.372564 202.051872 
L 666.20322 202.051872 
L 666.20322 148.221216 
L 612.372564 148.221216 
z
" clip-path="url(#p4447ea702a)" style="fill: #af7b68; stroke: #6c4c40; stroke-width: 1.1; stroke-linejoin: miter"/>
   </g>
   <g id="patch_52">
    <path d="M 725.921604 202.051872 
L 779.75226 202.051872 
L 779.75226 148.221216 
L 725.921604 148.221216 
z
" clip-path="url(#p4447ea702a)" style="fill: #918778; stroke: #59534a; stroke-width: 1.1; stroke-linejoin: miter"/>
   </g>
   <g id="patch_53">
    <path d="M 839.470644 202.051872 
L 893.3013 202.051872 
L 893.3013 148.221216 
L 839.470644 148.221216 
z
" clip-path="url(#p4447ea702a)" style="fill: #739388; stroke: #475b54; stroke-width: 1.1; stroke-linejoin: miter"/>
   </g>
   <g id="patch_54">
    <path d="M 953.019684 202.051872 
L 1006.85034 202.051872 
L 1006.85034 148.221216 
L 953.019684 148.221216 
z
" clip-path="url(#p4447ea702a)" style="fill: #54a098; stroke: #34635e; stroke-width: 1.1; stroke-linejoin: miter"/>
   </g>
   <g id="patch_55">
    <path d="M 1066.568724 202.051872 
L 1120.39938 202.051872 
L 1120.39938 148.221216 
L 1066.568724 148.221216 
z
" clip-path="url(#p4447ea702a)" style="fill: #47a19d; stroke: #2c6361; stroke-width: 1.1; stroke-linejoin: miter"/>
   </g>
   <g id="patch_56">
    <path d="M 1180.117764 202.051872 
L 1233.94842 202.051872 
L 1233.94842 148.221216 
L 1180.117764 148.221216 
z
" clip-path="url(#p4447ea702a)" style="fill: #4a9698; stroke: #2d5d5e; stroke-width: 1.1; stroke-linejoin: miter"/>
   </g>
   <g id="patch_57">
    <path d="M 1293.666804 202.051872 
L 1347.49746 202.051872 
L 1347.49746 148.221216 
L 1293.666804 148.221216 
z
" clip-path="url(#p4447ea702a)" style="fill: #4e8b92; stroke: #30565a; stroke-width: 1.1; stroke-linejoin: miter"/>
   </g>
   <g id="patch_58">
    <path d="M 1407.215844 202.051872 
L 1461.0465 202.051872 
L 1461.0465 148.221216 
L 1407.215844 148.221216 
z
" clip-path="url(#p4447ea702a)" style="fill: #51808d; stroke: #324f57; stroke-width: 1.1; stroke-linejoin: miter"/>
   </g>
   <g id="patch_59">
    <path d="M 1520.764884 202.051872 
L 1574.59554 202.051872 
L 1574.59554 148.221216 
L 1520.764884 148.221216 
z
" clip-path="url(#p4447ea702a)" style="fill: #557587; stroke: #344853; stroke-width: 1.1; stroke-linejoin: miter"/>
   </g>
   <g id="patch_60">
    <path d="M 1634.313924 202.051872 
L 1688.14458 202.051872 
L 1688.14458 148.221216 
L 1634.313924 148.221216 
z
" clip-path="url(#p4447ea702a)" style="fill: #586a82; stroke: #364150; stroke-width: 1.1; stroke-linejoin: miter"/>
   </g>
   <g id="patch_61">
    <path d="M 1842.066612 140.230728 
L 1896.738372 140.230728 
L 1896.738372 85.558968 
L 1842.066612 85.558968 
z
" clip-path="url(#p4447ea702a)" style="fill: #1f8a8c; stroke: #135556; stroke-width: 1.1; stroke-linejoin: miter"/>
   </g>
   <g id="patch_62">
    <path d="M 1842.066612 274.807368 
L 1896.738372 274.807368 
L 1896.738372 220.135608 
L 1842.066612 220.135608 
z
" clip-path="url(#p4447ea702a)" style="fill: #c0492f; stroke: #772d1d; stroke-width: 1.1; stroke-linejoin: miter"/>
   </g>
   <g id="patch_63">
    <path d="M 214.530372 186.912 
L 286.024212 186.912 
L 286.024212 115.41816 
L 214.530372 115.41816 
z
" clip-path="url(#p4447ea702a)" style="fill: #f2b84b; stroke: #96722e; stroke-width: 1.1; stroke-linejoin: miter"/>
   </g>
   <g id="patch_64">
    <path d="M 379.386756 207.9396 
L 433.217412 207.9396 
L 433.217412 154.108944 
L 379.386756 154.108944 
z
" clip-path="url(#p4447ea702a)" style="fill: #ec6248; stroke: #923c2c; stroke-width: 1.1; stroke-linejoin: miter"/>
   </g>
   <g id="patch_65">
    <path d="M 492.935796 207.9396 
L 546.766452 207.9396 
L 546.766452 154.108944 
L 492.935796 154.108944 
z
" clip-path="url(#p4447ea702a)" style="fill: #ce6e58; stroke: #7f4436; stroke-width: 1.1; stroke-linejoin: miter"/>
   </g>
   <g id="patch_66">
    <path d="M 606.484836 207.9396 
L 660.315492 207.9396 
L 660.315492 154.108944 
L 606.484836 154.108944 
z
" clip-path="url(#p4447ea702a)" style="fill: #af7b68; stroke: #6c4c40; stroke-width: 1.1; stroke-linejoin: miter"/>
   </g>
   <g id="patch_67">
    <path d="M 720.033876 207.9396 
L 773.864532 207.9396 
L 773.864532 154.108944 
L 720.033876 154.108944 
z
" clip-path="url(#p4447ea702a)" style="fill: #918778; stroke: #59534a; stroke-width: 1.1; stroke-linejoin: miter"/>
   </g>
   <g id="patch_68">
    <path d="M 833.582916 207.9396 
L 887.413572 207.9396 
L 887.413572 154.108944 
L 833.582916 154.108944 
z
" clip-path="url(#p4447ea702a)" style="fill: #739388; stroke: #475b54; stroke-width: 1.1; stroke-linejoin: miter"/>
   </g>
   <g id="patch_69">
    <path d="M 947.131956 207.9396 
L 1000.962612 207.9396 
L 1000.962612 154.108944 
L 947.131956 154.108944 
z
" clip-path="url(#p4447ea702a)" style="fill: #54a098; stroke: #34635e; stroke-width: 1.1; stroke-linejoin: miter"/>
   </g>
   <g id="patch_70">
    <path d="M 1060.680996 207.9396 
L 1114.511652 207.9396 
L 1114.511652 154.108944 
L 1060.680996 154.108944 
z
" clip-path="url(#p4447ea702a)" style="fill: #47a19d; stroke: #2c6361; stroke-width: 1.1; stroke-linejoin: miter"/>
   </g>
   <g id="patch_71">
    <path d="M 1174.230036 207.9396 
L 1228.060692 207.9396 
L 1228.060692 154.108944 
L 1174.230036 154.108944 
z
" clip-path="url(#p4447ea702a)" style="fill: #4a9698; stroke: #2d5d5e; stroke-width: 1.1; stroke-linejoin: miter"/>
   </g>
   <g id="patch_72">
    <path d="M 1287.779076 207.9396 
L 1341.609732 207.9396 
L 1341.609732 154.108944 
L 1287.779076 154.108944 
z
" clip-path="url(#p4447ea702a)" style="fill: #4e8b92; stroke: #30565a; stroke-width: 1.1; stroke-linejoin: miter"/>
   </g>
   <g id="patch_73">
    <path d="M 1401.328116 207.9396 
L 1455.158772 207.9396 
L 1455.158772 154.108944 
L 1401.328116 154.108944 
z
" clip-path="url(#p4447ea702a)" style="fill: #51808d; stroke: #324f57; stroke-width: 1.1; stroke-linejoin: miter"/>
   </g>
   <g id="patch_74">
    <path d="M 1514.877156 207.9396 
L 1568.707812 207.9396 
L 1568.707812 154.108944 
L 1514.877156 154.108944 
z
" clip-path="url(#p4447ea702a)" style="fill: #557587; stroke: #344853; stroke-width: 1.1; stroke-linejoin: miter"/>
   </g>
   <g id="patch_75">
    <path d="M 1628.426196 207.9396 
L 1682.256852 207.9396 
L 1682.256852 154.108944 
L 1628.426196 154.108944 
z
" clip-path="url(#p4447ea702a)" style="fill: #586a82; stroke: #364150; stroke-width: 1.1; stroke-linejoin: miter"/>
   </g>
   <g id="patch_76">
    <path d="M 1835.33778 146.95956 
L 1890.00954 146.95956 
L 1890.00954 92.2878 
L 1835.33778 92.2878 
z
" clip-path="url(#p4447ea702a)" style="fill: #1f8a8c; stroke: #135556; stroke-width: 1.1; stroke-linejoin: miter"/>
   </g>
   <g id="patch_77">
    <path d="M 1835.33778 281.5362 
L 1890.00954 281.5362 
L 1890.00954 226.86444 
L 1835.33778 226.86444 
z
" clip-path="url(#p4447ea702a)" style="fill: #c0492f; stroke: #772d1d; stroke-width: 1.1; stroke-linejoin: miter"/>
   </g>
   <g id="patch_78">
    <path d="M 207.380988 194.061384 
L 278.874828 194.061384 
L 278.874828 122.567544 
L 207.380988 122.567544 
z
" clip-path="url(#p4447ea702a)" style="fill: #f2b84b; stroke: #96722e; stroke-width: 1.1; stroke-linejoin: miter"/>
   </g>
   <g id="patch_79">
    <path d="M 373.499028 213.827328 
L 427.329684 213.827328 
L 427.329684 159.996672 
L 373.499028 159.996672 
z
" clip-path="url(#p4447ea702a)" style="fill: #ec6248; stroke: #923c2c; stroke-width: 1.1; stroke-linejoin: miter"/>
   </g>
   <g id="patch_80">
    <path d="M 487.048068 213.827328 
L 540.878724 213.827328 
L 540.878724 159.996672 
L 487.048068 159.996672 
z
" clip-path="url(#p4447ea702a)" style="fill: #ce6e58; stroke: #7f4436; stroke-width: 1.1; stroke-linejoin: miter"/>
   </g>
   <g id="patch_81">
    <path d="M 600.597108 213.827328 
L 654.427764 213.827328 
L 654.427764 159.996672 
L 600.597108 159.996672 
z
" clip-path="url(#p4447ea702a)" style="fill: #af7b68; stroke: #6c4c40; stroke-width: 1.1; stroke-linejoin: miter"/>
   </g>
   <g id="patch_82">
    <path d="M 714.146148 213.827328 
L 767.976804 213.827328 
L 767.976804 159.996672 
L 714.146148 159.996672 
z
" clip-path="url(#p4447ea702a)" style="fill: #918778; stroke: #59534a; stroke-width: 1.1; stroke-linejoin: miter"/>
   </g>
   <g id="patch_83">
    <path d="M 827.695188 213.827328 
L 881.525844 213.827328 
L 881.525844 159.996672 
L 827.695188 159.996672 
z
" clip-path="url(#p4447ea702a)" style="fill: #739388; stroke: #475b54; stroke-width: 1.1; stroke-linejoin: miter"/>
   </g>
   <g id="patch_84">
    <path d="M 941.244228 213.827328 
L 995.074884 213.827328 
L 995.074884 159.996672 
L 941.244228 159.996672 
z
" clip-path="url(#p4447ea702a)" style="fill: #54a098; stroke: #34635e; stroke-width: 1.1; stroke-linejoin: miter"/>
   </g>
   <g id="patch_85">
    <path d="M 1054.793268 213.827328 
L 1108.623924 213.827328 
L 1108.623924 159.996672 
L 1054.793268 159.996672 
z
" clip-path="url(#p4447ea702a)" style="fill: #47a19d; stroke: #2c6361; stroke-width: 1.1; stroke-linejoin: miter"/>
   </g>
   <g id="patch_86">
    <path d="M 1168.342308 213.827328 
L 1222.172964 213.827328 
L 1222.172964 159.996672 
L 1168.342308 159.996672 
z
" clip-path="url(#p4447ea702a)" style="fill: #4a9698; stroke: #2d5d5e; stroke-width: 1.1; stroke-linejoin: miter"/>
   </g>
   <g id="patch_87">
    <path d="M 1281.891348 213.827328 
L 1335.722004 213.827328 
L 1335.722004 159.996672 
L 1281.891348 159.996672 
z
" clip-path="url(#p4447ea702a)" style="fill: #4e8b92; stroke: #30565a; stroke-width: 1.1; stroke-linejoin: miter"/>
   </g>
   <g id="patch_88">
    <path d="M 1395.440388 213.827328 
L 1449.271044 213.827328 
L 1449.271044 159.996672 
L 1395.440388 159.996672 
z
" clip-path="url(#p4447ea702a)" style="fill: #51808d; stroke: #324f57; stroke-width: 1.1; stroke-linejoin: miter"/>
   </g>
   <g id="patch_89">
    <path d="M 1508.989428 213.827328 
L 1562.820084 213.827328 
L 1562.820084 159.996672 
L 1508.989428 159.996672 
z
" clip-path="url(#p4447ea702a)" style="fill: #557587; stroke: #344853; stroke-width: 1.1; stroke-linejoin: miter"/>
   </g>
   <g id="patch_90">
    <path d="M 1622.538468 213.827328 
L 1676.369124 213.827328 
L 1676.369124 159.996672 
L 1622.538468 159.996672 
z
" clip-path="url(#p4447ea702a)" style="fill: #586a82; stroke: #364150; stroke-width: 1.1; stroke-linejoin: miter"/>
   </g>
   <g id="patch_91">
    <path d="M 200.231604 201.210768 
L 271.725444 201.210768 
L 271.725444 129.716928 
L 200.231604 129.716928 
z
" clip-path="url(#p4447ea702a)" style="fill: #f2b84b; stroke: #96722e; stroke-width: 1.1; stroke-linejoin: miter"/>
   </g>
   <g id="patch_92">
    <path d="M 193.08222 208.360152 
L 264.57606 208.360152 
L 264.57606 136.866312 
L 193.08222 136.866312 
z
" clip-path="url(#p4447ea702a)" style="fill: #f2b84b; stroke: #96722e; stroke-width: 1.1; stroke-linejoin: miter"/>
   </g>
   <g id="patch_93">
    <path d="M 185.932836 215.509536 
L 257.426676 215.509536 
L 257.426676 144.015696 
L 185.932836 144.015696 
z
" clip-path="url(#p4447ea702a)" style="fill: #f2b84b; stroke: #96722e; stroke-width: 1.1; stroke-linejoin: miter"/>
   </g>
   <g id="patch_94">
    <path d="M 178.783452 222.65892 
L 250.277292 222.65892 
L 250.277292 151.16508 
L 178.783452 151.16508 
z
" clip-path="url(#p4447ea702a)" style="fill: #f2b84b; stroke: #96722e; stroke-width: 1.1; stroke-linejoin: miter"/>
   </g>
   <g id="patch_95">
    <path d="M 60.187788 236.537136 
L 135.887148 236.537136 
L 135.887148 160.837776 
L 60.187788 160.837776 
z
" clip-path="url(#p4447ea702a)" style="fill: #c98f4a; stroke: #0d0f12; stroke-width: 1.2; stroke-linejoin: miter"/>
   </g>
   <g id="text_1">
    <!-- Board -->
    <g style="fill: #1b2330" transform="translate(65.430957 276.314927) scale(0.125 -0.125)">
     <defs>
      <path id="DejaVuSans-Bold-25" d="M 2456 2859 
Q 2741 2859 2887 2984 
Q 3034 3109 3034 3353 
Q 3034 3594 2887 3720 
Q 2741 3847 2456 3847 
L 1791 3847 
L 1791 2859 
L 2456 2859 
z
M 2497 819 
Q 2859 819 3042 972 
Q 3225 1125 3225 1434 
Q 3225 1738 3044 1889 
Q 2863 2041 2497 2041 
L 1791 2041 
L 1791 819 
L 2497 819 
z
M 3616 2497 
Q 4003 2384 4215 2081 
Q 4428 1778 4428 1338 
Q 4428 663 3972 331 
Q 3516 0 2584 0 
L 588 0 
L 588 4666 
L 2394 4666 
Q 3366 4666 3802 4372 
Q 4238 4078 4238 3431 
Q 4238 3091 4078 2852 
Q 3919 2613 3616 2497 
z
" transform="scale(0.015625)"/>
      <path id="DejaVuSans-Bold-52" d="M 2203 2784 
Q 1831 2784 1636 2517 
Q 1441 2250 1441 1747 
Q 1441 1244 1636 976 
Q 1831 709 2203 709 
Q 2569 709 2762 976 
Q 2956 1244 2956 1747 
Q 2956 2250 2762 2517 
Q 2569 2784 2203 2784 
z
M 2203 3584 
Q 3106 3584 3614 3096 
Q 4122 2609 4122 1747 
Q 4122 884 3614 396 
Q 3106 -91 2203 -91 
Q 1297 -91 786 396 
Q 275 884 275 1747 
Q 275 2609 786 3096 
Q 1297 3584 2203 3584 
z
" transform="scale(0.015625)"/>
      <path id="DejaVuSans-Bold-44" d="M 2106 1575 
Q 1756 1575 1579 1456 
Q 1403 1338 1403 1106 
Q 1403 894 1545 773 
Q 1688 653 1941 653 
Q 2256 653 2472 879 
Q 2688 1106 2688 1447 
L 2688 1575 
L 2106 1575 
z
M 3816 1997 
L 3816 0 
L 2688 0 
L 2688 519 
Q 2463 200 2181 54 
Q 1900 -91 1497 -91 
Q 953 -91 614 226 
Q 275 544 275 1050 
Q 275 1666 698 1953 
Q 1122 2241 2028 2241 
L 2688 2241 
L 2688 2328 
Q 2688 2594 2478 2717 
Q 2269 2841 1825 2841 
Q 1466 2841 1156 2769 
Q 847 2697 581 2553 
L 581 3406 
Q 941 3494 1303 3539 
Q 1666 3584 2028 3584 
Q 2975 3584 3395 3211 
Q 3816 2838 3816 1997 
z
" transform="scale(0.015625)"/>
      <path id="DejaVuSans-Bold-55" d="M 3138 2547 
Q 2991 2616 2845 2648 
Q 2700 2681 2553 2681 
Q 2122 2681 1889 2404 
Q 1656 2128 1656 1613 
L 1656 0 
L 538 0 
L 538 3500 
L 1656 3500 
L 1656 2925 
Q 1872 3269 2151 3426 
Q 2431 3584 2822 3584 
Q 2878 3584 2943 3579 
Q 3009 3575 3134 3559 
L 3138 2547 
z
" transform="scale(0.015625)"/>
      <path id="DejaVuSans-Bold-47" d="M 2919 2988 
L 2919 4863 
L 4044 4863 
L 4044 0 
L 2919 0 
L 2919 506 
Q 2688 197 2409 53 
Q 2131 -91 1766 -91 
Q 1119 -91 703 423 
Q 288 938 288 1747 
Q 288 2556 703 3070 
Q 1119 3584 1766 3584 
Q 2128 3584 2408 3439 
Q 2688 3294 2919 2988 
z
M 2181 722 
Q 2541 722 2730 984 
Q 2919 1247 2919 1747 
Q 2919 2247 2730 2509 
Q 2541 2772 2181 2772 
Q 1825 2772 1636 2509 
Q 1447 2247 1447 1747 
Q 1447 1247 1636 984 
Q 1825 722 2181 722 
z
" transform="scale(0.015625)"/>
     </defs>
     <use xlink:href="#DejaVuSans-Bold-25"/>
     <use xlink:href="#DejaVuSans-Bold-52" transform="translate(76.21875 0)"/>
     <use xlink:href="#DejaVuSans-Bold-44" transform="translate(144.921875 0)"/>
     <use xlink:href="#DejaVuSans-Bold-55" transform="translate(212.40625 0)"/>
     <use xlink:href="#DejaVuSans-Bold-47" transform="translate(261.71875 0)"/>
    </g>
   </g>
   <g id="text_2">
    <!-- 2x10x10 -->
    <g style="fill: #677184" transform="translate(64.137364 300.027539) scale(0.105 -0.105)">
     <defs>
      <path id="DejaVuSansMono-Bold-15" d="M 1356 813 
L 3322 813 
L 3322 0 
L 359 0 
L 359 788 
L 859 1319 
Q 1750 2266 1941 2484 
Q 2175 2753 2278 2961 
Q 2381 3169 2381 3372 
Q 2381 3684 2192 3854 
Q 2003 4025 1656 4025 
Q 1409 4025 1101 3926 
Q 794 3828 459 3641 
L 459 4500 
Q 794 4622 1114 4686 
Q 1434 4750 1728 4750 
Q 2469 4750 2892 4404 
Q 3316 4059 3316 3463 
Q 3316 3188 3223 2947 
Q 3131 2706 2906 2413 
Q 2741 2200 1997 1456 
Q 1594 1053 1356 813 
z
" transform="scale(0.015625)"/>
      <path id="DejaVuSansMono-Bold-5b" d="M 3578 3500 
L 2400 1825 
L 3681 0 
L 2613 0 
L 1925 1178 
L 1241 0 
L 172 0 
L 1466 1825 
L 275 3500 
L 1344 3500 
L 1925 2456 
L 2509 3500 
L 3578 3500 
z
" transform="scale(0.015625)"/>
      <path id="DejaVuSansMono-Bold-14" d="M 588 813 
L 1619 813 
L 1619 3841 
L 659 3603 
L 659 4434 
L 1625 4666 
L 2516 4666 
L 2516 813 
L 3547 813 
L 3547 0 
L 588 0 
L 588 813 
z
" transform="scale(0.015625)"/>
      <path id="DejaVuSansMono-Bold-13" d="M 1538 2328 
Q 1538 2494 1650 2606 
Q 1763 2719 1925 2719 
Q 2091 2719 2203 2606 
Q 2316 2494 2316 2328 
Q 2316 2166 2203 2053 
Q 2091 1941 1925 1941 
Q 1763 1941 1650 2052 
Q 1538 2163 1538 2328 
z
M 1925 3969 
Q 1606 3969 1459 3578 
Q 1313 3188 1313 2328 
Q 1313 1472 1459 1081 
Q 1606 691 1925 691 
Q 2247 691 2394 1081 
Q 2541 1472 2541 2328 
Q 2541 3188 2394 3578 
Q 2247 3969 1925 3969 
z
M 384 2328 
Q 384 3541 768 4145 
Q 1153 4750 1925 4750 
Q 2700 4750 3084 4147 
Q 3469 3544 3469 2328 
Q 3469 1116 3084 512 
Q 2700 -91 1925 -91 
Q 1153 -91 768 514 
Q 384 1119 384 2328 
z
" transform="scale(0.015625)"/>
     </defs>
     <use xlink:href="#DejaVuSansMono-Bold-15"/>
     <use xlink:href="#DejaVuSansMono-Bold-5b" transform="translate(60.203125 0)"/>
     <use xlink:href="#DejaVuSansMono-Bold-14" transform="translate(120.40625 0)"/>
     <use xlink:href="#DejaVuSansMono-Bold-13" transform="translate(180.609375 0)"/>
     <use xlink:href="#DejaVuSansMono-Bold-5b" transform="translate(240.8125 0)"/>
     <use xlink:href="#DejaVuSansMono-Bold-14" transform="translate(301.015625 0)"/>
     <use xlink:href="#DejaVuSansMono-Bold-13" transform="translate(361.21875 0)"/>
    </g>
   </g>
   <g id="text_3">
    <!-- Conv 3x3 -->
    <g style="fill: #1b2330" transform="translate(214.394006 276.31395) scale(0.125 -0.125)">
     <defs>
      <path id="DejaVuSans-Bold-26" d="M 4288 256 
Q 3956 84 3597 -3 
Q 3238 -91 2847 -91 
Q 1681 -91 1000 561 
Q 319 1213 319 2328 
Q 319 3447 1000 4098 
Q 1681 4750 2847 4750 
Q 3238 4750 3597 4662 
Q 3956 4575 4288 4403 
L 4288 3438 
Q 3953 3666 3628 3772 
Q 3303 3878 2944 3878 
Q 2300 3878 1931 3465 
Q 1563 3053 1563 2328 
Q 1563 1606 1931 1193 
Q 2300 781 2944 781 
Q 3303 781 3628 887 
Q 3953 994 4288 1222 
L 4288 256 
z
" transform="scale(0.015625)"/>
      <path id="DejaVuSans-Bold-51" d="M 4056 2131 
L 4056 0 
L 2931 0 
L 2931 347 
L 2931 1631 
Q 2931 2084 2911 2256 
Q 2891 2428 2841 2509 
Q 2775 2619 2662 2680 
Q 2550 2741 2406 2741 
Q 2056 2741 1856 2470 
Q 1656 2200 1656 1722 
L 1656 0 
L 538 0 
L 538 3500 
L 1656 3500 
L 1656 2988 
Q 1909 3294 2193 3439 
Q 2478 3584 2822 3584 
Q 3428 3584 3742 3212 
Q 4056 2841 4056 2131 
z
" transform="scale(0.015625)"/>
      <path id="DejaVuSans-Bold-59" d="M 97 3500 
L 1216 3500 
L 2088 1081 
L 2956 3500 
L 4078 3500 
L 2700 0 
L 1472 0 
L 97 3500 
z
" transform="scale(0.015625)"/>
      <path id="DejaVuSans-Bold-3" transform="scale(0.015625)"/>
      <path id="DejaVuSans-Bold-16" d="M 2981 2516 
Q 3453 2394 3698 2092 
Q 3944 1791 3944 1325 
Q 3944 631 3412 270 
Q 2881 -91 1863 -91 
Q 1503 -91 1142 -33 
Q 781 25 428 141 
L 428 1069 
Q 766 900 1098 814 
Q 1431 728 1753 728 
Q 2231 728 2486 893 
Q 2741 1059 2741 1369 
Q 2741 1688 2480 1852 
Q 2219 2016 1709 2016 
L 1228 2016 
L 1228 2791 
L 1734 2791 
Q 2188 2791 2409 2933 
Q 2631 3075 2631 3366 
Q 2631 3634 2415 3781 
Q 2200 3928 1806 3928 
Q 1516 3928 1219 3862 
Q 922 3797 628 3669 
L 628 4550 
Q 984 4650 1334 4700 
Q 1684 4750 2022 4750 
Q 2931 4750 3382 4451 
Q 3834 4153 3834 3553 
Q 3834 3144 3618 2883 
Q 3403 2622 2981 2516 
z
" transform="scale(0.015625)"/>
      <path id="DejaVuSans-Bold-5b" d="M 1422 1791 
L 159 3500 
L 1344 3500 
L 2059 2463 
L 2784 3500 
L 3969 3500 
L 2706 1797 
L 4031 0 
L 2847 0 
L 2059 1106 
L 1281 0 
L 97 0 
L 1422 1791 
z
" transform="scale(0.015625)"/>
     </defs>
     <use xlink:href="#DejaVuSans-Bold-26"/>
     <use xlink:href="#DejaVuSans-Bold-52" transform="translate(73.390625 0)"/>
     <use xlink:href="#DejaVuSans-Bold-51" transform="translate(142.09375 0)"/>
     <use xlink:href="#DejaVuSans-Bold-59" transform="translate(213.28125 0)"/>
     <use xlink:href="#DejaVuSans-Bold-3" transform="translate(278.46875 0)"/>
     <use xlink:href="#DejaVuSans-Bold-16" transform="translate(313.28125 0)"/>
     <use xlink:href="#DejaVuSans-Bold-5b" transform="translate(382.859375 0)"/>
     <use xlink:href="#DejaVuSans-Bold-16" transform="translate(447.359375 0)"/>
    </g>
   </g>
   <g id="text_4">
    <!-- 192x10x10 -->
    <g style="fill: #9a7a2a" transform="translate(218.256623 300.027539) scale(0.105 -0.105)">
     <defs>
      <path id="DejaVuSansMono-Bold-1c" d="M 634 63 
L 634 903 
Q 881 759 1107 690 
Q 1334 622 1544 622 
Q 2041 622 2302 955 
Q 2563 1288 2578 1950 
Q 2431 1747 2203 1645 
Q 1975 1544 1663 1544 
Q 1034 1544 690 1942 
Q 347 2341 347 3072 
Q 347 3853 731 4281 
Q 1116 4709 1819 4709 
Q 2672 4709 3058 4139 
Q 3444 3569 3444 2297 
Q 3444 1088 2972 483 
Q 2500 -122 1556 -122 
Q 1338 -122 1105 -75 
Q 872 -28 634 63 
z
M 1844 2316 
Q 2141 2316 2298 2533 
Q 2456 2750 2456 3163 
Q 2456 3572 2298 3789 
Q 2141 4006 1844 4006 
Q 1544 4006 1383 3789 
Q 1222 3572 1222 3163 
Q 1222 2753 1383 2534 
Q 1544 2316 1844 2316 
z
" transform="scale(0.015625)"/>
     </defs>
     <use xlink:href="#DejaVuSansMono-Bold-14"/>
     <use xlink:href="#DejaVuSansMono-Bold-1c" transform="translate(60.203125 0)"/>
     <use xlink:href="#DejaVuSansMono-Bold-15" transform="translate(120.40625 0)"/>
     <use xlink:href="#DejaVuSansMono-Bold-5b" transform="translate(180.609375 0)"/>
     <use xlink:href="#DejaVuSansMono-Bold-14" transform="translate(240.8125 0)"/>
     <use xlink:href="#DejaVuSansMono-Bold-13" transform="translate(301.015625 0)"/>
     <use xlink:href="#DejaVuSansMono-Bold-5b" transform="translate(361.21875 0)"/>
     <use xlink:href="#DejaVuSansMono-Bold-14" transform="translate(421.421875 0)"/>
     <use xlink:href="#DejaVuSansMono-Bold-13" transform="translate(481.625 0)"/>
    </g>
   </g>
   <g id="text_5">
    <!-- skip connection every block -->
    <g style="fill: #8a96a3" transform="translate(966.390466 89.128021) scale(0.105 -0.105)">
     <defs>
      <path id="DejaVuSans-Oblique-56" d="M 3200 3397 
L 3091 2853 
Q 2863 2978 2609 3040 
Q 2356 3103 2088 3103 
Q 1634 3103 1373 2948 
Q 1113 2794 1113 2528 
Q 1113 2219 1719 2053 
Q 1766 2041 1788 2034 
L 1972 1978 
Q 2547 1819 2739 1644 
Q 2931 1469 2931 1166 
Q 2931 609 2489 259 
Q 2047 -91 1331 -91 
Q 1053 -91 747 -37 
Q 441 16 72 128 
L 184 722 
Q 500 559 806 475 
Q 1113 391 1394 391 
Q 1816 391 2080 572 
Q 2344 753 2344 1031 
Q 2344 1331 1650 1516 
L 1591 1531 
L 1394 1581 
Q 956 1697 753 1886 
Q 550 2075 550 2369 
Q 550 2928 970 3256 
Q 1391 3584 2113 3584 
Q 2397 3584 2667 3537 
Q 2938 3491 3200 3397 
z
" transform="scale(0.015625)"/>
      <path id="DejaVuSans-Oblique-4e" d="M 1172 4863 
L 1747 4863 
L 1197 2028 
L 3169 3500 
L 3916 3500 
L 1716 1825 
L 3322 0 
L 2625 0 
L 1131 1709 
L 800 0 
L 225 0 
L 1172 4863 
z
" transform="scale(0.015625)"/>
      <path id="DejaVuSans-Oblique-4c" d="M 1172 4863 
L 1747 4863 
L 1606 4134 
L 1031 4134 
L 1172 4863 
z
M 909 3500 
L 1484 3500 
L 800 0 
L 225 0 
L 909 3500 
z
" transform="scale(0.015625)"/>
      <path id="DejaVuSans-Oblique-53" d="M 3175 2156 
Q 3175 2616 2975 2859 
Q 2775 3103 2400 3103 
Q 2144 3103 1911 2972 
Q 1678 2841 1497 2591 
Q 1319 2344 1212 1994 
Q 1106 1644 1106 1300 
Q 1106 863 1306 627 
Q 1506 391 1875 391 
Q 2147 391 2380 519 
Q 2613 647 2778 891 
Q 2956 1147 3065 1494 
Q 3175 1841 3175 2156 
z
M 1394 2969 
Q 1625 3272 1939 3428 
Q 2253 3584 2638 3584 
Q 3175 3584 3472 3232 
Q 3769 2881 3769 2247 
Q 3769 1728 3584 1258 
Q 3400 788 3053 416 
Q 2822 169 2531 39 
Q 2241 -91 1919 -91 
Q 1547 -91 1294 64 
Q 1041 219 916 525 
L 556 -1331 
L -19 -1331 
L 922 3500 
L 1497 3500 
L 1394 2969 
z
" transform="scale(0.015625)"/>
      <path id="DejaVuSans-Oblique-3" transform="scale(0.015625)"/>
      <path id="DejaVuSans-Oblique-46" d="M 3431 3366 
L 3316 2797 
Q 3109 2947 2876 3022 
Q 2644 3097 2394 3097 
Q 2119 3097 1870 3000 
Q 1622 2903 1453 2725 
Q 1184 2453 1037 2087 
Q 891 1722 891 1331 
Q 891 859 1127 628 
Q 1363 397 1844 397 
Q 2081 397 2348 469 
Q 2616 541 2906 684 
L 2797 116 
Q 2547 13 2283 -39 
Q 2019 -91 1741 -91 
Q 1044 -91 669 257 
Q 294 606 294 1253 
Q 294 1797 489 2255 
Q 684 2713 1069 3078 
Q 1331 3328 1684 3456 
Q 2038 3584 2456 3584 
Q 2700 3584 2940 3529 
Q 3181 3475 3431 3366 
z
" transform="scale(0.015625)"/>
      <path id="DejaVuSans-Oblique-52" d="M 1625 -91 
Q 1009 -91 651 289 
Q 294 669 294 1325 
Q 294 1706 417 2101 
Q 541 2497 738 2766 
Q 1047 3184 1428 3384 
Q 1809 3584 2291 3584 
Q 2888 3584 3255 3212 
Q 3622 2841 3622 2241 
Q 3622 1825 3500 1412 
Q 3378 1000 3181 728 
Q 2875 309 2494 109 
Q 2113 -91 1625 -91 
z
M 891 1344 
Q 891 869 1089 633 
Q 1288 397 1691 397 
Q 2269 397 2648 901 
Q 3028 1406 3028 2181 
Q 3028 2634 2825 2865 
Q 2622 3097 2228 3097 
Q 1903 3097 1650 2945 
Q 1397 2794 1197 2484 
Q 1050 2253 970 1956 
Q 891 1659 891 1344 
z
" transform="scale(0.015625)"/>
      <path id="DejaVuSans-Oblique-51" d="M 3566 2113 
L 3156 0 
L 2578 0 
L 2988 2091 
Q 3016 2238 3031 2350 
Q 3047 2463 3047 2528 
Q 3047 2791 2881 2937 
Q 2716 3084 2419 3084 
Q 1956 3084 1622 2776 
Q 1288 2469 1184 1941 
L 800 0 
L 225 0 
L 903 3500 
L 1478 3500 
L 1363 2950 
Q 1603 3253 1940 3418 
Q 2278 3584 2650 3584 
Q 3113 3584 3367 3334 
Q 3622 3084 3622 2631 
Q 3622 2519 3608 2391 
Q 3594 2263 3566 2113 
z
" transform="scale(0.015625)"/>
      <path id="DejaVuSans-Oblique-48" d="M 3078 2063 
Q 3088 2113 3092 2166 
Q 3097 2219 3097 2272 
Q 3097 2653 2873 2875 
Q 2650 3097 2266 3097 
Q 1838 3097 1509 2826 
Q 1181 2556 1013 2059 
L 3078 2063 
z
M 3578 1613 
L 903 1613 
Q 884 1494 878 1425 
Q 872 1356 872 1306 
Q 872 872 1139 634 
Q 1406 397 1894 397 
Q 2269 397 2603 481 
Q 2938 566 3225 728 
L 3116 159 
Q 2806 34 2476 -28 
Q 2147 -91 1806 -91 
Q 1078 -91 686 257 
Q 294 606 294 1247 
Q 294 1794 489 2264 
Q 684 2734 1063 3103 
Q 1306 3334 1642 3459 
Q 1978 3584 2356 3584 
Q 2950 3584 3301 3228 
Q 3653 2872 3653 2272 
Q 3653 2128 3634 1964 
Q 3616 1800 3578 1613 
z
" transform="scale(0.015625)"/>
      <path id="DejaVuSans-Oblique-57" d="M 2706 3500 
L 2619 3053 
L 1472 3053 
L 1100 1153 
Q 1081 1047 1072 975 
Q 1063 903 1063 863 
Q 1063 663 1183 572 
Q 1303 481 1569 481 
L 2150 481 
L 2053 0 
L 1503 0 
Q 991 0 739 200 
Q 488 400 488 806 
Q 488 878 497 964 
Q 506 1050 525 1153 
L 897 3053 
L 409 3053 
L 500 3500 
L 978 3500 
L 1172 4494 
L 1747 4494 
L 1556 3500 
L 2706 3500 
z
" transform="scale(0.015625)"/>
      <path id="DejaVuSans-Oblique-59" d="M 459 3500 
L 1069 3500 
L 1581 525 
L 3256 3500 
L 3866 3500 
L 1875 0 
L 1100 0 
L 459 3500 
z
" transform="scale(0.015625)"/>
      <path id="DejaVuSans-Oblique-55" d="M 2853 2969 
Q 2766 3016 2653 3041 
Q 2541 3066 2413 3066 
Q 1953 3066 1609 2717 
Q 1266 2369 1153 1784 
L 800 0 
L 225 0 
L 909 3500 
L 1484 3500 
L 1375 2956 
Q 1603 3259 1920 3421 
Q 2238 3584 2597 3584 
Q 2691 3584 2781 3573 
Q 2872 3563 2963 3538 
L 2853 2969 
z
" transform="scale(0.015625)"/>
      <path id="DejaVuSans-Oblique-5c" d="M 1588 -325 
Q 1188 -997 936 -1164 
Q 684 -1331 294 -1331 
L -159 -1331 
L -63 -850 
L 269 -850 
Q 509 -850 678 -719 
Q 847 -588 1056 -206 
L 1234 128 
L 459 3500 
L 1069 3500 
L 1650 819 
L 3256 3500 
L 3859 3500 
L 1588 -325 
z
" transform="scale(0.015625)"/>
      <path id="DejaVuSans-Oblique-45" d="M 3169 2138 
Q 3169 2591 2961 2847 
Q 2753 3103 2388 3103 
Q 2122 3103 1889 2973 
Q 1656 2844 1484 2597 
Q 1303 2338 1198 1995 
Q 1094 1653 1094 1313 
Q 1094 881 1298 636 
Q 1503 391 1863 391 
Q 2134 391 2365 517 
Q 2597 644 2772 891 
Q 2950 1147 3059 1487 
Q 3169 1828 3169 2138 
z
M 1381 2969 
Q 1594 3256 1914 3420 
Q 2234 3584 2584 3584 
Q 3122 3584 3439 3221 
Q 3756 2859 3756 2241 
Q 3756 1734 3570 1259 
Q 3384 784 3041 416 
Q 2816 172 2522 40 
Q 2228 -91 1906 -91 
Q 1566 -91 1316 65 
Q 1066 222 909 531 
L 806 0 
L 231 0 
L 1178 4863 
L 1753 4863 
L 1381 2969 
z
" transform="scale(0.015625)"/>
      <path id="DejaVuSans-Oblique-4f" d="M 1172 4863 
L 1747 4863 
L 800 0 
L 225 0 
L 1172 4863 
z
" transform="scale(0.015625)"/>
     </defs>
     <use xlink:href="#DejaVuSans-Oblique-56"/>
     <use xlink:href="#DejaVuSans-Oblique-4e" transform="translate(52.09375 0)"/>
     <use xlink:href="#DejaVuSans-Oblique-4c" transform="translate(110 0)"/>
     <use xlink:href="#DejaVuSans-Oblique-53" transform="translate(137.78125 0)"/>
     <use xlink:href="#DejaVuSans-Oblique-3" transform="translate(201.265625 0)"/>
     <use xlink:href="#DejaVuSans-Oblique-46" transform="translate(233.046875 0)"/>
     <use xlink:href="#DejaVuSans-Oblique-52" transform="translate(288.03125 0)"/>
     <use xlink:href="#DejaVuSans-Oblique-51" transform="translate(349.21875 0)"/>
     <use xlink:href="#DejaVuSans-Oblique-51" transform="translate(412.59375 0)"/>
     <use xlink:href="#DejaVuSans-Oblique-48" transform="translate(475.96875 0)"/>
     <use xlink:href="#DejaVuSans-Oblique-46" transform="translate(537.5 0)"/>
     <use xlink:href="#DejaVuSans-Oblique-57" transform="translate(592.484375 0)"/>
     <use xlink:href="#DejaVuSans-Oblique-4c" transform="translate(631.6875 0)"/>
     <use xlink:href="#DejaVuSans-Oblique-52" transform="translate(659.46875 0)"/>
     <use xlink:href="#DejaVuSans-Oblique-51" transform="translate(720.65625 0)"/>
     <use xlink:href="#DejaVuSans-Oblique-3" transform="translate(784.03125 0)"/>
     <use xlink:href="#DejaVuSans-Oblique-48" transform="translate(815.8125 0)"/>
     <use xlink:href="#DejaVuSans-Oblique-59" transform="translate(877.34375 0)"/>
     <use xlink:href="#DejaVuSans-Oblique-48" transform="translate(936.53125 0)"/>
     <use xlink:href="#DejaVuSans-Oblique-55" transform="translate(998.0625 0)"/>
     <use xlink:href="#DejaVuSans-Oblique-5c" transform="translate(1039.171875 0)"/>
     <use xlink:href="#DejaVuSans-Oblique-3" transform="translate(1098.359375 0)"/>
     <use xlink:href="#DejaVuSans-Oblique-45" transform="translate(1130.140625 0)"/>
     <use xlink:href="#DejaVuSans-Oblique-4f" transform="translate(1193.625 0)"/>
     <use xlink:href="#DejaVuSans-Oblique-52" transform="translate(1221.40625 0)"/>
     <use xlink:href="#DejaVuSans-Oblique-46" transform="translate(1282.59375 0)"/>
     <use xlink:href="#DejaVuSans-Oblique-4e" transform="translate(1337.578125 0)"/>
    </g>
   </g>
   <g id="text_6">
    <!-- Residual  x12 -->
    <g style="fill: #1b2330" transform="translate(992.376052 276.314927) scale(0.125 -0.125)">
     <defs>
      <path id="DejaVuSans-Bold-35" d="M 2297 2597 
Q 2675 2597 2839 2737 
Q 3003 2878 3003 3200 
Q 3003 3519 2839 3656 
Q 2675 3794 2297 3794 
L 1791 3794 
L 1791 2597 
L 2297 2597 
z
M 1791 1766 
L 1791 0 
L 588 0 
L 588 4666 
L 2425 4666 
Q 3347 4666 3776 4356 
Q 4206 4047 4206 3378 
Q 4206 2916 3982 2619 
Q 3759 2322 3309 2181 
Q 3556 2125 3751 1926 
Q 3947 1728 4147 1325 
L 4800 0 
L 3519 0 
L 2950 1159 
Q 2778 1509 2601 1637 
Q 2425 1766 2131 1766 
L 1791 1766 
z
" transform="scale(0.015625)"/>
      <path id="DejaVuSans-Bold-48" d="M 4031 1759 
L 4031 1441 
L 1416 1441 
Q 1456 1047 1700 850 
Q 1944 653 2381 653 
Q 2734 653 3104 758 
Q 3475 863 3866 1075 
L 3866 213 
Q 3469 63 3072 -14 
Q 2675 -91 2278 -91 
Q 1328 -91 801 392 
Q 275 875 275 1747 
Q 275 2603 792 3093 
Q 1309 3584 2216 3584 
Q 3041 3584 3536 3087 
Q 4031 2591 4031 1759 
z
M 2881 2131 
Q 2881 2450 2695 2645 
Q 2509 2841 2209 2841 
Q 1884 2841 1681 2658 
Q 1478 2475 1428 2131 
L 2881 2131 
z
" transform="scale(0.015625)"/>
      <path id="DejaVuSans-Bold-56" d="M 3272 3391 
L 3272 2541 
Q 2913 2691 2578 2766 
Q 2244 2841 1947 2841 
Q 1628 2841 1473 2761 
Q 1319 2681 1319 2516 
Q 1319 2381 1436 2309 
Q 1553 2238 1856 2203 
L 2053 2175 
Q 2913 2066 3209 1816 
Q 3506 1566 3506 1031 
Q 3506 472 3093 190 
Q 2681 -91 1863 -91 
Q 1516 -91 1145 -36 
Q 775 19 384 128 
L 384 978 
Q 719 816 1070 734 
Q 1422 653 1784 653 
Q 2113 653 2278 743 
Q 2444 834 2444 1013 
Q 2444 1163 2330 1236 
Q 2216 1309 1875 1350 
L 1678 1375 
Q 931 1469 631 1722 
Q 331 1975 331 2491 
Q 331 3047 712 3315 
Q 1094 3584 1881 3584 
Q 2191 3584 2531 3537 
Q 2872 3491 3272 3391 
z
" transform="scale(0.015625)"/>
      <path id="DejaVuSans-Bold-4c" d="M 538 3500 
L 1656 3500 
L 1656 0 
L 538 0 
L 538 3500 
z
M 538 4863 
L 1656 4863 
L 1656 3950 
L 538 3950 
L 538 4863 
z
" transform="scale(0.015625)"/>
      <path id="DejaVuSans-Bold-58" d="M 500 1363 
L 500 3500 
L 1625 3500 
L 1625 3150 
Q 1625 2866 1622 2436 
Q 1619 2006 1619 1863 
Q 1619 1441 1641 1255 
Q 1663 1069 1716 984 
Q 1784 875 1895 815 
Q 2006 756 2150 756 
Q 2500 756 2700 1025 
Q 2900 1294 2900 1772 
L 2900 3500 
L 4019 3500 
L 4019 0 
L 2900 0 
L 2900 506 
Q 2647 200 2364 54 
Q 2081 -91 1741 -91 
Q 1134 -91 817 281 
Q 500 653 500 1363 
z
" transform="scale(0.015625)"/>
      <path id="DejaVuSans-Bold-4f" d="M 538 4863 
L 1656 4863 
L 1656 0 
L 538 0 
L 538 4863 
z
" transform="scale(0.015625)"/>
      <path id="DejaVuSans-Bold-14" d="M 750 831 
L 1813 831 
L 1813 3847 
L 722 3622 
L 722 4441 
L 1806 4666 
L 2950 4666 
L 2950 831 
L 4013 831 
L 4013 0 
L 750 0 
L 750 831 
z
" transform="scale(0.015625)"/>
      <path id="DejaVuSans-Bold-15" d="M 1844 884 
L 3897 884 
L 3897 0 
L 506 0 
L 506 884 
L 2209 2388 
Q 2438 2594 2547 2791 
Q 2656 2988 2656 3200 
Q 2656 3528 2436 3728 
Q 2216 3928 1850 3928 
Q 1569 3928 1234 3808 
Q 900 3688 519 3450 
L 519 4475 
Q 925 4609 1322 4679 
Q 1719 4750 2100 4750 
Q 2938 4750 3402 4381 
Q 3866 4013 3866 3353 
Q 3866 2972 3669 2642 
Q 3472 2313 2841 1759 
L 1844 884 
z
" transform="scale(0.015625)"/>
     </defs>
     <use xlink:href="#DejaVuSans-Bold-35"/>
     <use xlink:href="#DejaVuSans-Bold-48" transform="translate(77 0)"/>
     <use xlink:href="#DejaVuSans-Bold-56" transform="translate(144.828125 0)"/>
     <use xlink:href="#DejaVuSans-Bold-4c" transform="translate(204.34375 0)"/>
     <use xlink:href="#DejaVuSans-Bold-47" transform="translate(238.625 0)"/>
     <use xlink:href="#DejaVuSans-Bold-58" transform="translate(310.203125 0)"/>
     <use xlink:href="#DejaVuSans-Bold-44" transform="translate(381.390625 0)"/>
     <use xlink:href="#DejaVuSans-Bold-4f" transform="translate(448.875 0)"/>
     <use xlink:href="#DejaVuSans-Bold-3" transform="translate(483.15625 0)"/>
     <use xlink:href="#DejaVuSans-Bold-3" transform="translate(517.96875 0)"/>
     <use xlink:href="#DejaVuSans-Bold-5b" transform="translate(552.78125 0)"/>
     <use xlink:href="#DejaVuSans-Bold-14" transform="translate(617.28125 0)"/>
     <use xlink:href="#DejaVuSans-Bold-15" transform="translate(686.859375 0)"/>
    </g>
   </g>
   <g id="text_7">
    <!-- 192 ch -->
    <g style="fill: #5a6573" transform="translate(1020.689412 300.028359) scale(0.105 -0.105)">
     <defs>
      <path id="DejaVuSansMono-Bold-3" transform="scale(0.015625)"/>
      <path id="DejaVuSansMono-Bold-46" d="M 3316 178 
Q 3084 44 2818 -23 
Q 2553 -91 2247 -91 
Q 1438 -91 981 396 
Q 525 884 525 1747 
Q 525 2613 984 3102 
Q 1444 3591 2253 3591 
Q 2534 3591 2795 3525 
Q 3056 3459 3316 3322 
L 3316 2484 
Q 3116 2656 2877 2748 
Q 2638 2841 2381 2841 
Q 1934 2841 1693 2556 
Q 1453 2272 1453 1747 
Q 1453 1222 1693 940 
Q 1934 659 2381 659 
Q 2647 659 2878 748 
Q 3109 838 3316 1019 
L 3316 178 
z
" transform="scale(0.015625)"/>
      <path id="DejaVuSansMono-Bold-4b" d="M 3347 2272 
L 3347 0 
L 2438 0 
L 2438 2131 
Q 2438 2509 2330 2671 
Q 2222 2834 1978 2834 
Q 1728 2834 1587 2614 
Q 1447 2394 1447 2003 
L 1447 0 
L 538 0 
L 538 4863 
L 1447 4863 
L 1447 2975 
Q 1544 3266 1778 3425 
Q 2013 3584 2344 3584 
Q 2841 3584 3094 3254 
Q 3347 2925 3347 2272 
z
" transform="scale(0.015625)"/>
     </defs>
     <use xlink:href="#DejaVuSansMono-Bold-14"/>
     <use xlink:href="#DejaVuSansMono-Bold-1c" transform="translate(60.203125 0)"/>
     <use xlink:href="#DejaVuSansMono-Bold-15" transform="translate(120.40625 0)"/>
     <use xlink:href="#DejaVuSansMono-Bold-3" transform="translate(180.609375 0)"/>
     <use xlink:href="#DejaVuSansMono-Bold-46" transform="translate(240.8125 0)"/>
     <use xlink:href="#DejaVuSansMono-Bold-4b" transform="translate(301.015625 0)"/>
    </g>
   </g>
   <g id="text_8">
    <!-- Policy -->
    <g style="fill: #1f8a8c" transform="translate(1937.952468 114.460199) scale(0.125 -0.125)">
     <defs>
      <path id="DejaVuSans-Bold-33" d="M 588 4666 
L 2584 4666 
Q 3475 4666 3951 4270 
Q 4428 3875 4428 3144 
Q 4428 2409 3951 2014 
Q 3475 1619 2584 1619 
L 1791 1619 
L 1791 0 
L 588 0 
L 588 4666 
z
M 1791 3794 
L 1791 2491 
L 2456 2491 
Q 2806 2491 2997 2661 
Q 3188 2831 3188 3144 
Q 3188 3456 2997 3625 
Q 2806 3794 2456 3794 
L 1791 3794 
z
" transform="scale(0.015625)"/>
      <path id="DejaVuSans-Bold-46" d="M 3366 3391 
L 3366 2478 
Q 3138 2634 2908 2709 
Q 2678 2784 2431 2784 
Q 1963 2784 1702 2511 
Q 1441 2238 1441 1747 
Q 1441 1256 1702 982 
Q 1963 709 2431 709 
Q 2694 709 2930 787 
Q 3166 866 3366 1019 
L 3366 103 
Q 3103 6 2833 -42 
Q 2563 -91 2291 -91 
Q 1344 -91 809 395 
Q 275 881 275 1747 
Q 275 2613 809 3098 
Q 1344 3584 2291 3584 
Q 2566 3584 2833 3536 
Q 3100 3488 3366 3391 
z
" transform="scale(0.015625)"/>
      <path id="DejaVuSans-Bold-5c" d="M 78 3500 
L 1197 3500 
L 2138 1125 
L 2938 3500 
L 4056 3500 
L 2584 -331 
Q 2363 -916 2067 -1148 
Q 1772 -1381 1288 -1381 
L 641 -1381 
L 641 -647 
L 991 -647 
Q 1275 -647 1404 -556 
Q 1534 -466 1606 -231 
L 1638 -134 
L 78 3500 
z
" transform="scale(0.015625)"/>
     </defs>
     <use xlink:href="#DejaVuSans-Bold-33"/>
     <use xlink:href="#DejaVuSans-Bold-52" transform="translate(73.296875 0)"/>
     <use xlink:href="#DejaVuSans-Bold-4f" transform="translate(142 0)"/>
     <use xlink:href="#DejaVuSans-Bold-4c" transform="translate(176.28125 0)"/>
     <use xlink:href="#DejaVuSans-Bold-46" transform="translate(210.5625 0)"/>
     <use xlink:href="#DejaVuSans-Bold-5c" transform="translate(269.84375 0)"/>
    </g>
   </g>
   <g id="text_9">
    <!-- -&gt; 100 moves -->
    <g style="fill: #1f8a8c" transform="translate(1937.952468 144.09004) scale(0.1 -0.1)">
     <defs>
      <path id="DejaVuSansMono-10" d="M 1113 2009 
L 2741 2009 
L 2741 1497 
L 1113 1497 
L 1113 2009 
z
" transform="scale(0.015625)"/>
      <path id="DejaVuSansMono-21" d="M 275 3003 
L 275 3572 
L 3578 2266 
L 3578 1747 
L 275 441 
L 275 1013 
L 2931 2003 
L 275 3003 
z
" transform="scale(0.015625)"/>
      <path id="DejaVuSansMono-3" transform="scale(0.015625)"/>
      <path id="DejaVuSansMono-14" d="M 844 531 
L 1825 531 
L 1825 4097 
L 769 3859 
L 769 4434 
L 1819 4666 
L 2450 4666 
L 2450 531 
L 3419 531 
L 3419 0 
L 844 0 
L 844 531 
z
" transform="scale(0.015625)"/>
      <path id="DejaVuSansMono-13" d="M 1509 2344 
Q 1509 2516 1629 2641 
Q 1750 2766 1919 2766 
Q 2094 2766 2219 2641 
Q 2344 2516 2344 2344 
Q 2344 2169 2220 2047 
Q 2097 1925 1919 1925 
Q 1744 1925 1626 2044 
Q 1509 2163 1509 2344 
z
M 1925 4250 
Q 1484 4250 1267 3775 
Q 1050 3300 1050 2328 
Q 1050 1359 1267 884 
Q 1484 409 1925 409 
Q 2369 409 2586 884 
Q 2803 1359 2803 2328 
Q 2803 3300 2586 3775 
Q 2369 4250 1925 4250 
z
M 1925 4750 
Q 2672 4750 3055 4137 
Q 3438 3525 3438 2328 
Q 3438 1134 3055 521 
Q 2672 -91 1925 -91 
Q 1178 -91 797 521 
Q 416 1134 416 2328 
Q 416 3525 797 4137 
Q 1178 4750 1925 4750 
z
" transform="scale(0.015625)"/>
      <path id="DejaVuSansMono-50" d="M 2113 3144 
Q 2219 3369 2383 3476 
Q 2547 3584 2778 3584 
Q 3200 3584 3373 3257 
Q 3547 2931 3547 2028 
L 3547 0 
L 3022 0 
L 3022 2003 
Q 3022 2744 2939 2923 
Q 2856 3103 2638 3103 
Q 2388 3103 2295 2911 
Q 2203 2719 2203 2003 
L 2203 0 
L 1678 0 
L 1678 2003 
Q 1678 2753 1589 2928 
Q 1500 3103 1269 3103 
Q 1041 3103 952 2911 
Q 863 2719 863 2003 
L 863 0 
L 341 0 
L 341 3500 
L 863 3500 
L 863 3200 
Q 966 3388 1120 3486 
Q 1275 3584 1472 3584 
Q 1709 3584 1867 3475 
Q 2025 3366 2113 3144 
z
" transform="scale(0.015625)"/>
      <path id="DejaVuSansMono-52" d="M 1925 3097 
Q 1488 3097 1263 2756 
Q 1038 2416 1038 1747 
Q 1038 1081 1263 739 
Q 1488 397 1925 397 
Q 2366 397 2591 739 
Q 2816 1081 2816 1747 
Q 2816 2416 2591 2756 
Q 2366 3097 1925 3097 
z
M 1925 3584 
Q 2653 3584 3039 3112 
Q 3425 2641 3425 1747 
Q 3425 850 3040 379 
Q 2656 -91 1925 -91 
Q 1197 -91 812 379 
Q 428 850 428 1747 
Q 428 2641 812 3112 
Q 1197 3584 1925 3584 
z
" transform="scale(0.015625)"/>
      <path id="DejaVuSansMono-59" d="M 313 3500 
L 909 3500 
L 1925 563 
L 2944 3500 
L 3541 3500 
L 2297 0 
L 1556 0 
L 313 3500 
z
" transform="scale(0.015625)"/>
      <path id="DejaVuSansMono-48" d="M 3475 1894 
L 3475 1613 
L 984 1613 
L 984 1594 
Q 984 1022 1282 709 
Q 1581 397 2125 397 
Q 2400 397 2700 484 
Q 3000 572 3341 750 
L 3341 178 
Q 3013 44 2708 -23 
Q 2403 -91 2119 -91 
Q 1303 -91 843 398 
Q 384 888 384 1747 
Q 384 2584 834 3084 
Q 1284 3584 2034 3584 
Q 2703 3584 3089 3131 
Q 3475 2678 3475 1894 
z
M 2900 2063 
Q 2888 2569 2661 2833 
Q 2434 3097 2009 3097 
Q 1594 3097 1325 2822 
Q 1056 2547 1006 2059 
L 2900 2063 
z
" transform="scale(0.015625)"/>
      <path id="DejaVuSansMono-56" d="M 3041 3378 
L 3041 2816 
Q 2794 2959 2544 3031 
Q 2294 3103 2034 3103 
Q 1644 3103 1451 2976 
Q 1259 2850 1259 2591 
Q 1259 2356 1403 2240 
Q 1547 2125 2119 2016 
L 2350 1972 
Q 2778 1891 2998 1647 
Q 3219 1403 3219 1013 
Q 3219 494 2850 201 
Q 2481 -91 1825 -91 
Q 1566 -91 1281 -36 
Q 997 19 666 128 
L 666 722 
Q 988 556 1281 473 
Q 1575 391 1838 391 
Q 2219 391 2428 545 
Q 2638 700 2638 978 
Q 2638 1378 1872 1531 
L 1847 1538 
L 1631 1581 
Q 1134 1678 906 1908 
Q 678 2138 678 2534 
Q 678 3038 1018 3311 
Q 1359 3584 1991 3584 
Q 2272 3584 2531 3532 
Q 2791 3481 3041 3378 
z
" transform="scale(0.015625)"/>
     </defs>
     <use xlink:href="#DejaVuSansMono-10"/>
     <use xlink:href="#DejaVuSansMono-21" transform="translate(60.203125 0)"/>
     <use xlink:href="#DejaVuSansMono-3" transform="translate(120.40625 0)"/>
     <use xlink:href="#DejaVuSansMono-14" transform="translate(180.609375 0)"/>
     <use xlink:href="#DejaVuSansMono-13" transform="translate(240.8125 0)"/>
     <use xlink:href="#DejaVuSansMono-13" transform="translate(301.015625 0)"/>
     <use xlink:href="#DejaVuSansMono-3" transform="translate(361.21875 0)"/>
     <use xlink:href="#DejaVuSansMono-50" transform="translate(421.421875 0)"/>
     <use xlink:href="#DejaVuSansMono-52" transform="translate(481.625 0)"/>
     <use xlink:href="#DejaVuSansMono-59" transform="translate(541.828125 0)"/>
     <use xlink:href="#DejaVuSansMono-48" transform="translate(602.03125 0)"/>
     <use xlink:href="#DejaVuSansMono-56" transform="translate(662.234375 0)"/>
    </g>
   </g>
   <g id="text_10">
    <!-- Value -->
    <g style="fill: #c0492f" transform="translate(1937.952468 249.036839) scale(0.125 -0.125)">
     <defs>
      <path id="DejaVuSans-Bold-39" d="M 31 4666 
L 1241 4666 
L 2478 1222 
L 3713 4666 
L 4922 4666 
L 3194 0 
L 1759 0 
L 31 4666 
z
" transform="scale(0.015625)"/>
     </defs>
     <use xlink:href="#DejaVuSans-Bold-39"/>
     <use xlink:href="#DejaVuSans-Bold-44" transform="translate(71.921875 0)"/>
     <use xlink:href="#DejaVuSans-Bold-4f" transform="translate(139.40625 0)"/>
     <use xlink:href="#DejaVuSans-Bold-58" transform="translate(173.6875 0)"/>
     <use xlink:href="#DejaVuSans-Bold-48" transform="translate(244.875 0)"/>
    </g>
   </g>
   <g id="text_11">
    <!-- -&gt; [-1, 1] -->
    <g style="fill: #c0492f" transform="translate(1937.952468 278.667071) scale(0.1 -0.1)">
     <defs>
      <path id="DejaVuSansMono-3e" d="M 1447 4863 
L 2772 4863 
L 2772 4416 
L 2022 4416 
L 2022 -397 
L 2772 -397 
L 2772 -844 
L 1447 -844 
L 1447 4863 
z
" transform="scale(0.015625)"/>
      <path id="DejaVuSansMono-f" d="M 1569 947 
L 2356 947 
L 2356 300 
L 1741 -897 
L 1259 -897 
L 1569 300 
L 1569 947 
z
" transform="scale(0.015625)"/>
      <path id="DejaVuSansMono-40" d="M 2406 4863 
L 2406 -844 
L 1081 -844 
L 1081 -397 
L 1831 -397 
L 1831 4416 
L 1081 4416 
L 1081 4863 
L 2406 4863 
z
" transform="scale(0.015625)"/>
     </defs>
     <use xlink:href="#DejaVuSansMono-10"/>
     <use xlink:href="#DejaVuSansMono-21" transform="translate(60.203125 0)"/>
     <use xlink:href="#DejaVuSansMono-3" transform="translate(120.40625 0)"/>
     <use xlink:href="#DejaVuSansMono-3e" transform="translate(180.609375 0)"/>
     <use xlink:href="#DejaVuSansMono-10" transform="translate(240.8125 0)"/>
     <use xlink:href="#DejaVuSansMono-14" transform="translate(301.015625 0)"/>
     <use xlink:href="#DejaVuSansMono-f" transform="translate(361.21875 0)"/>
     <use xlink:href="#DejaVuSansMono-3" transform="translate(421.421875 0)"/>
     <use xlink:href="#DejaVuSansMono-14" transform="translate(481.625 0)"/>
     <use xlink:href="#DejaVuSansMono-40" transform="translate(541.828125 0)"/>
    </g>
   </g>
   <g id="text_12">
    <!-- element-wise addition (residual skip) -->
    <g style="fill: #677184" transform="translate(111.495132 345.955391) scale(0.1 -0.1)">
     <defs>
      <path id="DejaVuSans-48" d="M 3597 1894 
L 3597 1613 
L 953 1613 
Q 991 1019 1311 708 
Q 1631 397 2203 397 
Q 2534 397 2845 478 
Q 3156 559 3463 722 
L 3463 178 
Q 3153 47 2828 -22 
Q 2503 -91 2169 -91 
Q 1331 -91 842 396 
Q 353 884 353 1716 
Q 353 2575 817 3079 
Q 1281 3584 2069 3584 
Q 2775 3584 3186 3129 
Q 3597 2675 3597 1894 
z
M 3022 2063 
Q 3016 2534 2758 2815 
Q 2500 3097 2075 3097 
Q 1594 3097 1305 2825 
Q 1016 2553 972 2059 
L 3022 2063 
z
" transform="scale(0.015625)"/>
      <path id="DejaVuSans-4f" d="M 603 4863 
L 1178 4863 
L 1178 0 
L 603 0 
L 603 4863 
z
" transform="scale(0.015625)"/>
      <path id="DejaVuSans-50" d="M 3328 2828 
Q 3544 3216 3844 3400 
Q 4144 3584 4550 3584 
Q 5097 3584 5394 3201 
Q 5691 2819 5691 2113 
L 5691 0 
L 5113 0 
L 5113 2094 
Q 5113 2597 4934 2840 
Q 4756 3084 4391 3084 
Q 3944 3084 3684 2787 
Q 3425 2491 3425 1978 
L 3425 0 
L 2847 0 
L 2847 2094 
Q 2847 2600 2669 2842 
Q 2491 3084 2119 3084 
Q 1678 3084 1418 2786 
Q 1159 2488 1159 1978 
L 1159 0 
L 581 0 
L 581 3500 
L 1159 3500 
L 1159 2956 
Q 1356 3278 1631 3431 
Q 1906 3584 2284 3584 
Q 2666 3584 2933 3390 
Q 3200 3197 3328 2828 
z
" transform="scale(0.015625)"/>
      <path id="DejaVuSans-51" d="M 3513 2113 
L 3513 0 
L 2938 0 
L 2938 2094 
Q 2938 2591 2744 2837 
Q 2550 3084 2163 3084 
Q 1697 3084 1428 2787 
Q 1159 2491 1159 1978 
L 1159 0 
L 581 0 
L 581 3500 
L 1159 3500 
L 1159 2956 
Q 1366 3272 1645 3428 
Q 1925 3584 2291 3584 
Q 2894 3584 3203 3211 
Q 3513 2838 3513 2113 
z
" transform="scale(0.015625)"/>
      <path id="DejaVuSans-57" d="M 1172 4494 
L 1172 3500 
L 2356 3500 
L 2356 3053 
L 1172 3053 
L 1172 1153 
Q 1172 725 1289 603 
Q 1406 481 1766 481 
L 2356 481 
L 2356 0 
L 1766 0 
Q 1100 0 847 248 
Q 594 497 594 1153 
L 594 3053 
L 172 3053 
L 172 3500 
L 594 3500 
L 594 4494 
L 1172 4494 
z
" transform="scale(0.015625)"/>
      <path id="DejaVuSans-10" d="M 313 2009 
L 1997 2009 
L 1997 1497 
L 313 1497 
L 313 2009 
z
" transform="scale(0.015625)"/>
      <path id="DejaVuSans-5a" d="M 269 3500 
L 844 3500 
L 1563 769 
L 2278 3500 
L 2956 3500 
L 3675 769 
L 4391 3500 
L 4966 3500 
L 4050 0 
L 3372 0 
L 2619 2869 
L 1863 0 
L 1184 0 
L 269 3500 
z
" transform="scale(0.015625)"/>
      <path id="DejaVuSans-4c" d="M 603 3500 
L 1178 3500 
L 1178 0 
L 603 0 
L 603 3500 
z
M 603 4863 
L 1178 4863 
L 1178 4134 
L 603 4134 
L 603 4863 
z
" transform="scale(0.015625)"/>
      <path id="DejaVuSans-56" d="M 2834 3397 
L 2834 2853 
Q 2591 2978 2328 3040 
Q 2066 3103 1784 3103 
Q 1356 3103 1142 2972 
Q 928 2841 928 2578 
Q 928 2378 1081 2264 
Q 1234 2150 1697 2047 
L 1894 2003 
Q 2506 1872 2764 1633 
Q 3022 1394 3022 966 
Q 3022 478 2636 193 
Q 2250 -91 1575 -91 
Q 1294 -91 989 -36 
Q 684 19 347 128 
L 347 722 
Q 666 556 975 473 
Q 1284 391 1588 391 
Q 1994 391 2212 530 
Q 2431 669 2431 922 
Q 2431 1156 2273 1281 
Q 2116 1406 1581 1522 
L 1381 1569 
Q 847 1681 609 1914 
Q 372 2147 372 2553 
Q 372 3047 722 3315 
Q 1072 3584 1716 3584 
Q 2034 3584 2315 3537 
Q 2597 3491 2834 3397 
z
" transform="scale(0.015625)"/>
      <path id="DejaVuSans-3" transform="scale(0.015625)"/>
      <path id="DejaVuSans-44" d="M 2194 1759 
Q 1497 1759 1228 1600 
Q 959 1441 959 1056 
Q 959 750 1161 570 
Q 1363 391 1709 391 
Q 2188 391 2477 730 
Q 2766 1069 2766 1631 
L 2766 1759 
L 2194 1759 
z
M 3341 1997 
L 3341 0 
L 2766 0 
L 2766 531 
Q 2569 213 2275 61 
Q 1981 -91 1556 -91 
Q 1019 -91 701 211 
Q 384 513 384 1019 
Q 384 1609 779 1909 
Q 1175 2209 1959 2209 
L 2766 2209 
L 2766 2266 
Q 2766 2663 2505 2880 
Q 2244 3097 1772 3097 
Q 1472 3097 1187 3025 
Q 903 2953 641 2809 
L 641 3341 
Q 956 3463 1253 3523 
Q 1550 3584 1831 3584 
Q 2591 3584 2966 3190 
Q 3341 2797 3341 1997 
z
" transform="scale(0.015625)"/>
      <path id="DejaVuSans-47" d="M 2906 2969 
L 2906 4863 
L 3481 4863 
L 3481 0 
L 2906 0 
L 2906 525 
Q 2725 213 2448 61 
Q 2172 -91 1784 -91 
Q 1150 -91 751 415 
Q 353 922 353 1747 
Q 353 2572 751 3078 
Q 1150 3584 1784 3584 
Q 2172 3584 2448 3432 
Q 2725 3281 2906 2969 
z
M 947 1747 
Q 947 1113 1208 752 
Q 1469 391 1925 391 
Q 2381 391 2643 752 
Q 2906 1113 2906 1747 
Q 2906 2381 2643 2742 
Q 2381 3103 1925 3103 
Q 1469 3103 1208 2742 
Q 947 2381 947 1747 
z
" transform="scale(0.015625)"/>
      <path id="DejaVuSans-52" d="M 1959 3097 
Q 1497 3097 1228 2736 
Q 959 2375 959 1747 
Q 959 1119 1226 758 
Q 1494 397 1959 397 
Q 2419 397 2687 759 
Q 2956 1122 2956 1747 
Q 2956 2369 2687 2733 
Q 2419 3097 1959 3097 
z
M 1959 3584 
Q 2709 3584 3137 3096 
Q 3566 2609 3566 1747 
Q 3566 888 3137 398 
Q 2709 -91 1959 -91 
Q 1206 -91 779 398 
Q 353 888 353 1747 
Q 353 2609 779 3096 
Q 1206 3584 1959 3584 
z
" transform="scale(0.015625)"/>
      <path id="DejaVuSans-b" d="M 1984 4856 
Q 1566 4138 1362 3434 
Q 1159 2731 1159 2009 
Q 1159 1288 1364 580 
Q 1569 -128 1984 -844 
L 1484 -844 
Q 1016 -109 783 600 
Q 550 1309 550 2009 
Q 550 2706 781 3412 
Q 1013 4119 1484 4856 
L 1984 4856 
z
" transform="scale(0.015625)"/>
      <path id="DejaVuSans-55" d="M 2631 2963 
Q 2534 3019 2420 3045 
Q 2306 3072 2169 3072 
Q 1681 3072 1420 2755 
Q 1159 2438 1159 1844 
L 1159 0 
L 581 0 
L 581 3500 
L 1159 3500 
L 1159 2956 
Q 1341 3275 1631 3429 
Q 1922 3584 2338 3584 
Q 2397 3584 2469 3576 
Q 2541 3569 2628 3553 
L 2631 2963 
z
" transform="scale(0.015625)"/>
      <path id="DejaVuSans-58" d="M 544 1381 
L 544 3500 
L 1119 3500 
L 1119 1403 
Q 1119 906 1312 657 
Q 1506 409 1894 409 
Q 2359 409 2629 706 
Q 2900 1003 2900 1516 
L 2900 3500 
L 3475 3500 
L 3475 0 
L 2900 0 
L 2900 538 
Q 2691 219 2414 64 
Q 2138 -91 1772 -91 
Q 1169 -91 856 284 
Q 544 659 544 1381 
z
M 1991 3584 
L 1991 3584 
z
" transform="scale(0.015625)"/>
      <path id="DejaVuSans-4e" d="M 581 4863 
L 1159 4863 
L 1159 1991 
L 2875 3500 
L 3609 3500 
L 1753 1863 
L 3688 0 
L 2938 0 
L 1159 1709 
L 1159 0 
L 581 0 
L 581 4863 
z
" transform="scale(0.015625)"/>
      <path id="DejaVuSans-53" d="M 1159 525 
L 1159 -1331 
L 581 -1331 
L 581 3500 
L 1159 3500 
L 1159 2969 
Q 1341 3281 1617 3432 
Q 1894 3584 2278 3584 
Q 2916 3584 3314 3078 
Q 3713 2572 3713 1747 
Q 3713 922 3314 415 
Q 2916 -91 2278 -91 
Q 1894 -91 1617 61 
Q 1341 213 1159 525 
z
M 3116 1747 
Q 3116 2381 2855 2742 
Q 2594 3103 2138 3103 
Q 1681 3103 1420 2742 
Q 1159 2381 1159 1747 
Q 1159 1113 1420 752 
Q 1681 391 2138 391 
Q 2594 391 2855 752 
Q 3116 1113 3116 1747 
z
" transform="scale(0.015625)"/>
      <path id="DejaVuSans-c" d="M 513 4856 
L 1013 4856 
Q 1481 4119 1714 3412 
Q 1947 2706 1947 2009 
Q 1947 1309 1714 600 
Q 1481 -109 1013 -844 
L 513 -844 
Q 928 -128 1133 580 
Q 1338 1288 1338 2009 
Q 1338 2731 1133 3434 
Q 928 4138 513 4856 
z
" transform="scale(0.015625)"/>
     </defs>
     <use xlink:href="#DejaVuSans-48"/>
     <use xlink:href="#DejaVuSans-4f" transform="translate(61.53125 0)"/>
     <use xlink:href="#DejaVuSans-48" transform="translate(89.3125 0)"/>
     <use xlink:href="#DejaVuSans-50" transform="translate(150.84375 0)"/>
     <use xlink:href="#DejaVuSans-48" transform="translate(248.25 0)"/>
     <use xlink:href="#DejaVuSans-51" transform="translate(309.78125 0)"/>
     <use xlink:href="#DejaVuSans-57" transform="translate(373.15625 0)"/>
     <use xlink:href="#DejaVuSans-10" transform="translate(412.359375 0)"/>
     <use xlink:href="#DejaVuSans-5a" transform="translate(448.4375 0)"/>
     <use xlink:href="#DejaVuSans-4c" transform="translate(530.21875 0)"/>
     <use xlink:href="#DejaVuSans-56" transform="translate(558 0)"/>
     <use xlink:href="#DejaVuSans-48" transform="translate(610.09375 0)"/>
     <use xlink:href="#DejaVuSans-3" transform="translate(671.625 0)"/>
     <use xlink:href="#DejaVuSans-44" transform="translate(703.40625 0)"/>
     <use xlink:href="#DejaVuSans-47" transform="translate(764.6875 0)"/>
     <use xlink:href="#DejaVuSans-47" transform="translate(828.171875 0)"/>
     <use xlink:href="#DejaVuSans-4c" transform="translate(891.65625 0)"/>
     <use xlink:href="#DejaVuSans-57" transform="translate(919.4375 0)"/>
     <use xlink:href="#DejaVuSans-4c" transform="translate(958.640625 0)"/>
     <use xlink:href="#DejaVuSans-52" transform="translate(986.421875 0)"/>
     <use xlink:href="#DejaVuSans-51" transform="translate(1047.609375 0)"/>
     <use xlink:href="#DejaVuSans-3" transform="translate(1110.984375 0)"/>
     <use xlink:href="#DejaVuSans-b" transform="translate(1142.765625 0)"/>
     <use xlink:href="#DejaVuSans-55" transform="translate(1181.78125 0)"/>
     <use xlink:href="#DejaVuSans-48" transform="translate(1220.6875 0)"/>
     <use xlink:href="#DejaVuSans-56" transform="translate(1282.21875 0)"/>
     <use xlink:href="#DejaVuSans-4c" transform="translate(1334.3125 0)"/>
     <use xlink:href="#DejaVuSans-47" transform="translate(1362.09375 0)"/>
     <use xlink:href="#DejaVuSans-58" transform="translate(1425.578125 0)"/>
     <use xlink:href="#DejaVuSans-44" transform="translate(1488.953125 0)"/>
     <use xlink:href="#DejaVuSans-4f" transform="translate(1550.234375 0)"/>
     <use xlink:href="#DejaVuSans-3" transform="translate(1578.015625 0)"/>
     <use xlink:href="#DejaVuSans-56" transform="translate(1609.796875 0)"/>
     <use xlink:href="#DejaVuSans-4e" transform="translate(1661.890625 0)"/>
     <use xlink:href="#DejaVuSans-4c" transform="translate(1719.796875 0)"/>
     <use xlink:href="#DejaVuSans-53" transform="translate(1747.578125 0)"/>
     <use xlink:href="#DejaVuSans-c" transform="translate(1811.0625 0)"/>
    </g>
   </g>
   <g id="line2d_1">
    <path d="M 75.32766 236.537136 
L 75.32766 160.837776 
" clip-path="url(#p4447ea702a)" style="fill: none; stroke: #8a5a25; stroke-width: 0.5; stroke-linecap: square"/>
   </g>
   <g id="line2d_2">
    <path d="M 60.187788 221.397264 
L 135.887148 221.397264 
" clip-path="url(#p4447ea702a)" style="fill: none; stroke: #8a5a25; stroke-width: 0.5; stroke-linecap: square"/>
   </g>
   <g id="line2d_3">
    <path d="M 90.467532 236.537136 
L 90.467532 160.837776 
" clip-path="url(#p4447ea702a)" style="fill: none; stroke: #8a5a25; stroke-width: 0.5; stroke-linecap: square"/>
   </g>
   <g id="line2d_4">
    <path d="M 60.187788 206.257392 
L 135.887148 206.257392 
" clip-path="url(#p4447ea702a)" style="fill: none; stroke: #8a5a25; stroke-width: 0.5; stroke-linecap: square"/>
   </g>
   <g id="line2d_5">
    <path d="M 105.607404 236.537136 
L 105.607404 160.837776 
" clip-path="url(#p4447ea702a)" style="fill: none; stroke: #8a5a25; stroke-width: 0.5; stroke-linecap: square"/>
   </g>
   <g id="line2d_6">
    <path d="M 60.187788 191.11752 
L 135.887148 191.11752 
" clip-path="url(#p4447ea702a)" style="fill: none; stroke: #8a5a25; stroke-width: 0.5; stroke-linecap: square"/>
   </g>
   <g id="line2d_7">
    <path d="M 120.747276 236.537136 
L 120.747276 160.837776 
" clip-path="url(#p4447ea702a)" style="fill: none; stroke: #8a5a25; stroke-width: 0.5; stroke-linecap: square"/>
   </g>
   <g id="line2d_8">
    <path d="M 60.187788 175.977648 
L 135.887148 175.977648 
" clip-path="url(#p4447ea702a)" style="fill: none; stroke: #8a5a25; stroke-width: 0.5; stroke-linecap: square"/>
   </g>
   <g id="patch_96">
    <path d="M 366.376737 165.196821 
Q 421.020391 101.135275 474.357997 163.663356 
" clip-path="url(#p4447ea702a)" style="fill: none; stroke: #8a96a3; stroke-width: 1.8; stroke-linecap: round"/>
    <path d="M 472.853959 157.585703 
L 474.357997 163.663356 
L 468.593451 161.219994 
z
" clip-path="url(#p4447ea702a)" style="fill: #8a96a3; stroke: #8a96a3; stroke-width: 1.8; stroke-linecap: round"/>
   </g>
   <g id="patch_97">
    <path d="M 479.925777 165.196821 
Q 534.569431 101.135275 587.907037 163.663356 
" clip-path="url(#p4447ea702a)" style="fill: none; stroke: #8a96a3; stroke-width: 1.8; stroke-linecap: round"/>
    <path d="M 586.402999 157.585703 
L 587.907037 163.663356 
L 582.142491 161.219994 
z
" clip-path="url(#p4447ea702a)" style="fill: #8a96a3; stroke: #8a96a3; stroke-width: 1.8; stroke-linecap: round"/>
   </g>
   <g id="patch_98">
    <path d="M 593.474817 165.196821 
Q 648.118471 101.135275 701.456077 163.663356 
" clip-path="url(#p4447ea702a)" style="fill: none; stroke: #8a96a3; stroke-width: 1.8; stroke-linecap: round"/>
    <path d="M 699.952039 157.585703 
L 701.456077 163.663356 
L 695.691531 161.219994 
z
" clip-path="url(#p4447ea702a)" style="fill: #8a96a3; stroke: #8a96a3; stroke-width: 1.8; stroke-linecap: round"/>
   </g>
   <g id="patch_99">
    <path d="M 707.023857 165.196821 
Q 761.667511 101.135275 815.005117 163.663356 
" clip-path="url(#p4447ea702a)" style="fill: none; stroke: #8a96a3; stroke-width: 1.8; stroke-linecap: round"/>
    <path d="M 813.501079 157.585703 
L 815.005117 163.663356 
L 809.240571 161.219994 
z
" clip-path="url(#p4447ea702a)" style="fill: #8a96a3; stroke: #8a96a3; stroke-width: 1.8; stroke-linecap: round"/>
   </g>
   <g id="patch_100">
    <path d="M 820.572897 165.196821 
Q 875.216551 101.135275 928.554157 163.663356 
" clip-path="url(#p4447ea702a)" style="fill: none; stroke: #8a96a3; stroke-width: 1.8; stroke-linecap: round"/>
    <path d="M 927.050119 157.585703 
L 928.554157 163.663356 
L 922.789611 161.219994 
z
" clip-path="url(#p4447ea702a)" style="fill: #8a96a3; stroke: #8a96a3; stroke-width: 1.8; stroke-linecap: round"/>
   </g>
   <g id="patch_101">
    <path d="M 934.121937 165.196821 
Q 988.765591 101.135275 1042.103197 163.663356 
" clip-path="url(#p4447ea702a)" style="fill: none; stroke: #8a96a3; stroke-width: 1.8; stroke-linecap: round"/>
    <path d="M 1040.599159 157.585703 
L 1042.103197 163.663356 
L 1036.338651 161.219994 
z
" clip-path="url(#p4447ea702a)" style="fill: #8a96a3; stroke: #8a96a3; stroke-width: 1.8; stroke-linecap: round"/>
   </g>
   <g id="patch_102">
    <path d="M 1047.670977 165.196821 
Q 1102.314631 101.135275 1155.652237 163.663356 
" clip-path="url(#p4447ea702a)" style="fill: none; stroke: #8a96a3; stroke-width: 1.8; stroke-linecap: round"/>
    <path d="M 1154.148199 157.585703 
L 1155.652237 163.663356 
L 1149.887691 161.219994 
z
" clip-path="url(#p4447ea702a)" style="fill: #8a96a3; stroke: #8a96a3; stroke-width: 1.8; stroke-linecap: round"/>
   </g>
   <g id="patch_103">
    <path d="M 1161.220017 165.196821 
Q 1215.863671 101.135275 1269.201277 163.663356 
" clip-path="url(#p4447ea702a)" style="fill: none; stroke: #8a96a3; stroke-width: 1.8; stroke-linecap: round"/>
    <path d="M 1267.697239 157.585703 
L 1269.201277 163.663356 
L 1263.436731 161.219994 
z
" clip-path="url(#p4447ea702a)" style="fill: #8a96a3; stroke: #8a96a3; stroke-width: 1.8; stroke-linecap: round"/>
   </g>
   <g id="patch_104">
    <path d="M 1274.769057 165.196821 
Q 1329.412711 101.135275 1382.750317 163.663356 
" clip-path="url(#p4447ea702a)" style="fill: none; stroke: #8a96a3; stroke-width: 1.8; stroke-linecap: round"/>
    <path d="M 1381.246279 157.585703 
L 1382.750317 163.663356 
L 1376.985771 161.219994 
z
" clip-path="url(#p4447ea702a)" style="fill: #8a96a3; stroke: #8a96a3; stroke-width: 1.8; stroke-linecap: round"/>
   </g>
   <g id="patch_105">
    <path d="M 1388.318097 165.196821 
Q 1442.961751 101.135275 1496.299357 163.663356 
" clip-path="url(#p4447ea702a)" style="fill: none; stroke: #8a96a3; stroke-width: 1.8; stroke-linecap: round"/>
    <path d="M 1494.795319 157.585703 
L 1496.299357 163.663356 
L 1490.534811 161.219994 
z
" clip-path="url(#p4447ea702a)" style="fill: #8a96a3; stroke: #8a96a3; stroke-width: 1.8; stroke-linecap: round"/>
   </g>
   <g id="patch_106">
    <path d="M 1501.867137 165.196821 
Q 1556.510791 101.135275 1609.848397 163.663356 
" clip-path="url(#p4447ea702a)" style="fill: none; stroke: #8a96a3; stroke-width: 1.8; stroke-linecap: round"/>
    <path d="M 1608.344359 157.585703 
L 1609.848397 163.663356 
L 1604.083851 161.219994 
z
" clip-path="url(#p4447ea702a)" style="fill: #8a96a3; stroke: #8a96a3; stroke-width: 1.8; stroke-linecap: round"/>
   </g>
   <g id="patch_107">
    <path d="M 1615.416177 165.196821 
Q 1670.059831 101.135275 1723.397437 163.663356 
" clip-path="url(#p4447ea702a)" style="fill: none; stroke: #8a96a3; stroke-width: 1.8; stroke-linecap: round"/>
    <path d="M 1721.893399 157.585703 
L 1723.397437 163.663356 
L 1717.632891 161.219994 
z
" clip-path="url(#p4447ea702a)" style="fill: #8a96a3; stroke: #8a96a3; stroke-width: 1.8; stroke-linecap: round"/>
   </g>
   <g id="patch_108">
    <path d="M 314.621748 186.912 
Q 342.37818 186.912 367.674937 186.912 
" clip-path="url(#p4447ea702a)" style="fill: none; stroke: #8a96a3; stroke-width: 2.2; stroke-linecap: round"/>
    <path d="M 361.674937 183.912 
L 367.674937 186.912 
L 361.674937 189.912 
z
" clip-path="url(#p4447ea702a)" style="fill: #8a96a3; stroke: #8a96a3; stroke-width: 2.2; stroke-linecap: round"/>
   </g>
   <g id="patch_109">
    <path d="M 456.768324 186.912 
Q 460.13274 186.912 461.596498 186.912 
" clip-path="url(#p4447ea702a)" style="fill: none; stroke: #8a96a3; stroke-width: 1.7; stroke-linecap: round"/>
    <path d="M 455.596498 183.912 
L 461.596498 186.912 
L 455.596498 189.912 
z
" clip-path="url(#p4447ea702a)" style="fill: #8a96a3; stroke: #8a96a3; stroke-width: 1.7; stroke-linecap: round"/>
   </g>
   <g id="patch_110">
    <path d="M 490.412484 186.912 
Q 487.048068 186.912 485.58431 186.912 
" clip-path="url(#p4447ea702a)" style="fill: none; stroke: #8a96a3; stroke-width: 1.7; stroke-linecap: round"/>
    <path d="M 491.58431 189.912 
L 485.58431 186.912 
L 491.58431 183.912 
z
" clip-path="url(#p4447ea702a)" style="fill: #8a96a3; stroke: #8a96a3; stroke-width: 1.7; stroke-linecap: round"/>
   </g>
   <g id="patch_111">
    <path d="M 570.317364 186.912 
Q 573.68178 186.912 575.145538 186.912 
" clip-path="url(#p4447ea702a)" style="fill: none; stroke: #8a96a3; stroke-width: 1.7; stroke-linecap: round"/>
    <path d="M 569.145538 183.912 
L 575.145538 186.912 
L 569.145538 189.912 
z
" clip-path="url(#p4447ea702a)" style="fill: #8a96a3; stroke: #8a96a3; stroke-width: 1.7; stroke-linecap: round"/>
   </g>
   <g id="patch_112">
    <path d="M 603.961524 186.912 
Q 600.597108 186.912 599.13335 186.912 
" clip-path="url(#p4447ea702a)" style="fill: none; stroke: #8a96a3; stroke-width: 1.7; stroke-linecap: round"/>
    <path d="M 605.13335 189.912 
L 599.13335 186.912 
L 605.13335 183.912 
z
" clip-path="url(#p4447ea702a)" style="fill: #8a96a3; stroke: #8a96a3; stroke-width: 1.7; stroke-linecap: round"/>
   </g>
   <g id="patch_113">
    <path d="M 683.866404 186.912 
Q 687.23082 186.912 688.694578 186.912 
" clip-path="url(#p4447ea702a)" style="fill: none; stroke: #8a96a3; stroke-width: 1.7; stroke-linecap: round"/>
    <path d="M 682.694578 183.912 
L 688.694578 186.912 
L 682.694578 189.912 
z
" clip-path="url(#p4447ea702a)" style="fill: #8a96a3; stroke: #8a96a3; stroke-width: 1.7; stroke-linecap: round"/>
   </g>
   <g id="patch_114">
    <path d="M 717.510564 186.912 
Q 714.146148 186.912 712.68239 186.912 
" clip-path="url(#p4447ea702a)" style="fill: none; stroke: #8a96a3; stroke-width: 1.7; stroke-linecap: round"/>
    <path d="M 718.68239 189.912 
L 712.68239 186.912 
L 718.68239 183.912 
z
" clip-path="url(#p4447ea702a)" style="fill: #8a96a3; stroke: #8a96a3; stroke-width: 1.7; stroke-linecap: round"/>
   </g>
   <g id="patch_115">
    <path d="M 797.415444 186.912 
Q 800.77986 186.912 802.243618 186.912 
" clip-path="url(#p4447ea702a)" style="fill: none; stroke: #8a96a3; stroke-width: 1.7; stroke-linecap: round"/>
    <path d="M 796.243618 183.912 
L 802.243618 186.912 
L 796.243618 189.912 
z
" clip-path="url(#p4447ea702a)" style="fill: #8a96a3; stroke: #8a96a3; stroke-width: 1.7; stroke-linecap: round"/>
   </g>
   <g id="patch_116">
    <path d="M 831.059604 186.912 
Q 827.695188 186.912 826.23143 186.912 
" clip-path="url(#p4447ea702a)" style="fill: none; stroke: #8a96a3; stroke-width: 1.7; stroke-linecap: round"/>
    <path d="M 832.23143 189.912 
L 826.23143 186.912 
L 832.23143 183.912 
z
" clip-path="url(#p4447ea702a)" style="fill: #8a96a3; stroke: #8a96a3; stroke-width: 1.7; stroke-linecap: round"/>
   </g>
   <g id="patch_117">
    <path d="M 910.964484 186.912 
Q 914.3289 186.912 915.792658 186.912 
" clip-path="url(#p4447ea702a)" style="fill: none; stroke: #8a96a3; stroke-width: 1.7; stroke-linecap: round"/>
    <path d="M 909.792658 183.912 
L 915.792658 186.912 
L 909.792658 189.912 
z
" clip-path="url(#p4447ea702a)" style="fill: #8a96a3; stroke: #8a96a3; stroke-width: 1.7; stroke-linecap: round"/>
   </g>
   <g id="patch_118">
    <path d="M 944.608644 186.912 
Q 941.244228 186.912 939.78047 186.912 
" clip-path="url(#p4447ea702a)" style="fill: none; stroke: #8a96a3; stroke-width: 1.7; stroke-linecap: round"/>
    <path d="M 945.78047 189.912 
L 939.78047 186.912 
L 945.78047 183.912 
z
" clip-path="url(#p4447ea702a)" style="fill: #8a96a3; stroke: #8a96a3; stroke-width: 1.7; stroke-linecap: round"/>
   </g>
   <g id="patch_119">
    <path d="M 1024.513524 186.912 
Q 1027.87794 186.912 1029.341698 186.912 
" clip-path="url(#p4447ea702a)" style="fill: none; stroke: #8a96a3; stroke-width: 1.7; stroke-linecap: round"/>
    <path d="M 1023.341698 183.912 
L 1029.341698 186.912 
L 1023.341698 189.912 
z
" clip-path="url(#p4447ea702a)" style="fill: #8a96a3; stroke: #8a96a3; stroke-width: 1.7; stroke-linecap: round"/>
   </g>
   <g id="patch_120">
    <path d="M 1058.157684 186.912 
Q 1054.793268 186.912 1053.32951 186.912 
" clip-path="url(#p4447ea702a)" style="fill: none; stroke: #8a96a3; stroke-width: 1.7; stroke-linecap: round"/>
    <path d="M 1059.32951 189.912 
L 1053.32951 186.912 
L 1059.32951 183.912 
z
" clip-path="url(#p4447ea702a)" style="fill: #8a96a3; stroke: #8a96a3; stroke-width: 1.7; stroke-linecap: round"/>
   </g>
   <g id="patch_121">
    <path d="M 1138.062564 186.912 
Q 1141.42698 186.912 1142.890738 186.912 
" clip-path="url(#p4447ea702a)" style="fill: none; stroke: #8a96a3; stroke-width: 1.7; stroke-linecap: round"/>
    <path d="M 1136.890738 183.912 
L 1142.890738 186.912 
L 1136.890738 189.912 
z
" clip-path="url(#p4447ea702a)" style="fill: #8a96a3; stroke: #8a96a3; stroke-width: 1.7; stroke-linecap: round"/>
   </g>
   <g id="patch_122">
    <path d="M 1171.706724 186.912 
Q 1168.342308 186.912 1166.87855 186.912 
" clip-path="url(#p4447ea702a)" style="fill: none; stroke: #8a96a3; stroke-width: 1.7; stroke-linecap: round"/>
    <path d="M 1172.87855 189.912 
L 1166.87855 186.912 
L 1172.87855 183.912 
z
" clip-path="url(#p4447ea702a)" style="fill: #8a96a3; stroke: #8a96a3; stroke-width: 1.7; stroke-linecap: round"/>
   </g>
   <g id="patch_123">
    <path d="M 1251.611604 186.912 
Q 1254.97602 186.912 1256.439778 186.912 
" clip-path="url(#p4447ea702a)" style="fill: none; stroke: #8a96a3; stroke-width: 1.7; stroke-linecap: round"/>
    <path d="M 1250.439778 183.912 
L 1256.439778 186.912 
L 1250.439778 189.912 
z
" clip-path="url(#p4447ea702a)" style="fill: #8a96a3; stroke: #8a96a3; stroke-width: 1.7; stroke-linecap: round"/>
   </g>
   <g id="patch_124">
    <path d="M 1285.255764 186.912 
Q 1281.891348 186.912 1280.42759 186.912 
" clip-path="url(#p4447ea702a)" style="fill: none; stroke: #8a96a3; stroke-width: 1.7; stroke-linecap: round"/>
    <path d="M 1286.42759 189.912 
L 1280.42759 186.912 
L 1286.42759 183.912 
z
" clip-path="url(#p4447ea702a)" style="fill: #8a96a3; stroke: #8a96a3; stroke-width: 1.7; stroke-linecap: round"/>
   </g>
   <g id="patch_125">
    <path d="M 1365.160644 186.912 
Q 1368.52506 186.912 1369.988818 186.912 
" clip-path="url(#p4447ea702a)" style="fill: none; stroke: #8a96a3; stroke-width: 1.7; stroke-linecap: round"/>
    <path d="M 1363.988818 183.912 
L 1369.988818 186.912 
L 1363.988818 189.912 
z
" clip-path="url(#p4447ea702a)" style="fill: #8a96a3; stroke: #8a96a3; stroke-width: 1.7; stroke-linecap: round"/>
   </g>
   <g id="patch_126">
    <path d="M 1398.804804 186.912 
Q 1395.440388 186.912 1393.97663 186.912 
" clip-path="url(#p4447ea702a)" style="fill: none; stroke: #8a96a3; stroke-width: 1.7; stroke-linecap: round"/>
    <path d="M 1399.97663 189.912 
L 1393.97663 186.912 
L 1399.97663 183.912 
z
" clip-path="url(#p4447ea702a)" style="fill: #8a96a3; stroke: #8a96a3; stroke-width: 1.7; stroke-linecap: round"/>
   </g>
   <g id="patch_127">
    <path d="M 1478.709684 186.912 
Q 1482.0741 186.912 1483.537858 186.912 
" clip-path="url(#p4447ea702a)" style="fill: none; stroke: #8a96a3; stroke-width: 1.7; stroke-linecap: round"/>
    <path d="M 1477.537858 183.912 
L 1483.537858 186.912 
L 1477.537858 189.912 
z
" clip-path="url(#p4447ea702a)" style="fill: #8a96a3; stroke: #8a96a3; stroke-width: 1.7; stroke-linecap: round"/>
   </g>
   <g id="patch_128">
    <path d="M 1512.353844 186.912 
Q 1508.989428 186.912 1507.52567 186.912 
" clip-path="url(#p4447ea702a)" style="fill: none; stroke: #8a96a3; stroke-width: 1.7; stroke-linecap: round"/>
    <path d="M 1513.52567 189.912 
L 1507.52567 186.912 
L 1513.52567 183.912 
z
" clip-path="url(#p4447ea702a)" style="fill: #8a96a3; stroke: #8a96a3; stroke-width: 1.7; stroke-linecap: round"/>
   </g>
   <g id="patch_129">
    <path d="M 1592.258724 186.912 
Q 1595.62314 186.912 1597.086898 186.912 
" clip-path="url(#p4447ea702a)" style="fill: none; stroke: #8a96a3; stroke-width: 1.7; stroke-linecap: round"/>
    <path d="M 1591.086898 183.912 
L 1597.086898 186.912 
L 1591.086898 189.912 
z
" clip-path="url(#p4447ea702a)" style="fill: #8a96a3; stroke: #8a96a3; stroke-width: 1.7; stroke-linecap: round"/>
   </g>
   <g id="patch_130">
    <path d="M 1625.902884 186.912 
Q 1622.538468 186.912 1621.07471 186.912 
" clip-path="url(#p4447ea702a)" style="fill: none; stroke: #8a96a3; stroke-width: 1.7; stroke-linecap: round"/>
    <path d="M 1627.07471 189.912 
L 1621.07471 186.912 
L 1627.07471 183.912 
z
" clip-path="url(#p4447ea702a)" style="fill: #8a96a3; stroke: #8a96a3; stroke-width: 1.7; stroke-linecap: round"/>
   </g>
   <g id="patch_131">
    <path d="M 1705.807764 186.912 
Q 1709.17218 186.912 1710.635938 186.912 
" clip-path="url(#p4447ea702a)" style="fill: none; stroke: #8a96a3; stroke-width: 1.7; stroke-linecap: round"/>
    <path d="M 1704.635938 183.912 
L 1710.635938 186.912 
L 1704.635938 189.912 
z
" clip-path="url(#p4447ea702a)" style="fill: #8a96a3; stroke: #8a96a3; stroke-width: 1.7; stroke-linecap: round"/>
   </g>
   <g id="patch_132">
    <path d="M 1739.451924 186.912 
Q 1785.712644 153.26784 1829.984136 121.070391 
" clip-path="url(#p4447ea702a)" style="fill: none; stroke: #1f8a8c; stroke-width: 2.2; stroke-linecap: round"/>
    <path d="M 1823.367205 122.173213 
L 1829.984136 121.070391 
L 1826.896235 127.02563 
z
" clip-path="url(#p4447ea702a)" style="fill: #1f8a8c; stroke: #1f8a8c; stroke-width: 2.2; stroke-linecap: round"/>
   </g>
   <g id="patch_133">
    <path d="M 1739.451924 186.912 
Q 1785.712644 220.55616 1829.984136 252.753609 
" clip-path="url(#p4447ea702a)" style="fill: none; stroke: #c0492f; stroke-width: 2.2; stroke-linecap: round"/>
    <path d="M 1826.896235 246.79837 
L 1829.984136 252.753609 
L 1823.367205 251.650787 
z
" clip-path="url(#p4447ea702a)" style="fill: #c0492f; stroke: #c0492f; stroke-width: 2.2; stroke-linecap: round"/>
   </g>
   <g id="patch_134">
    <path d="M 476.95482 199.52856 
C 480.300771 199.52856 483.510131 198.1992 485.876075 195.833255 
C 488.24202 193.467311 489.57138 190.257951 489.57138 186.912 
C 489.57138 183.566049 488.24202 180.356689 485.876075 177.990745 
C 483.510131 175.6248 480.300771 174.29544 476.95482 174.29544 
C 473.608869 174.29544 470.399509 175.6248 468.033565 177.990745 
C 465.66762 180.356689 464.33826 183.566049 464.33826 186.912 
C 464.33826 190.257951 465.66762 193.467311 468.033565 195.833255 
C 470.399509 198.1992 473.608869 199.52856 476.95482 199.52856 
z
" clip-path="url(#p4447ea702a)" style="fill: #2bb7c4; stroke: #1b7e88; stroke-width: 1.3; stroke-linejoin: miter"/>
   </g>
   <g id="patch_135">
    <path d="M 590.50386 199.52856 
C 593.849811 199.52856 597.059171 198.1992 599.425115 195.833255 
C 601.79106 193.467311 603.12042 190.257951 603.12042 186.912 
C 603.12042 183.566049 601.79106 180.356689 599.425115 177.990745 
C 597.059171 175.6248 593.849811 174.29544 590.50386 174.29544 
C 587.157909 174.29544 583.948549 175.6248 581.582605 177.990745 
C 579.21666 180.356689 577.8873 183.566049 577.8873 186.912 
C 577.8873 190.257951 579.21666 193.467311 581.582605 195.833255 
C 583.948549 198.1992 587.157909 199.52856 590.50386 199.52856 
z
" clip-path="url(#p4447ea702a)" style="fill: #2bb7c4; stroke: #1b7e88; stroke-width: 1.3; stroke-linejoin: miter"/>
   </g>
   <g id="patch_136">
    <path d="M 704.0529 199.52856 
C 707.398851 199.52856 710.608211 198.1992 712.974155 195.833255 
C 715.3401 193.467311 716.66946 190.257951 716.66946 186.912 
C 716.66946 183.566049 715.3401 180.356689 712.974155 177.990745 
C 710.608211 175.6248 707.398851 174.29544 704.0529 174.29544 
C 700.706949 174.29544 697.497589 175.6248 695.131645 177.990745 
C 692.7657 180.356689 691.43634 183.566049 691.43634 186.912 
C 691.43634 190.257951 692.7657 193.467311 695.131645 195.833255 
C 697.497589 198.1992 700.706949 199.52856 704.0529 199.52856 
z
" clip-path="url(#p4447ea702a)" style="fill: #2bb7c4; stroke: #1b7e88; stroke-width: 1.3; stroke-linejoin: miter"/>
   </g>
   <g id="patch_137">
    <path d="M 817.60194 199.52856 
C 820.947891 199.52856 824.157251 198.1992 826.523195 195.833255 
C 828.88914 193.467311 830.2185 190.257951 830.2185 186.912 
C 830.2185 183.566049 828.88914 180.356689 826.523195 177.990745 
C 824.157251 175.6248 820.947891 174.29544 817.60194 174.29544 
C 814.255989 174.29544 811.046629 175.6248 808.680685 177.990745 
C 806.31474 180.356689 804.98538 183.566049 804.98538 186.912 
C 804.98538 190.257951 806.31474 193.467311 808.680685 195.833255 
C 811.046629 198.1992 814.255989 199.52856 817.60194 199.52856 
z
" clip-path="url(#p4447ea702a)" style="fill: #2bb7c4; stroke: #1b7e88; stroke-width: 1.3; stroke-linejoin: miter"/>
   </g>
   <g id="patch_138">
    <path d="M 931.15098 199.52856 
C 934.496931 199.52856 937.706291 198.1992 940.072235 195.833255 
C 942.43818 193.467311 943.76754 190.257951 943.76754 186.912 
C 943.76754 183.566049 942.43818 180.356689 940.072235 177.990745 
C 937.706291 175.6248 934.496931 174.29544 931.15098 174.29544 
C 927.805029 174.29544 924.595669 175.6248 922.229725 177.990745 
C 919.86378 180.356689 918.53442 183.566049 918.53442 186.912 
C 918.53442 190.257951 919.86378 193.467311 922.229725 195.833255 
C 924.595669 198.1992 927.805029 199.52856 931.15098 199.52856 
z
" clip-path="url(#p4447ea702a)" style="fill: #2bb7c4; stroke: #1b7e88; stroke-width: 1.3; stroke-linejoin: miter"/>
   </g>
   <g id="patch_139">
    <path d="M 1044.70002 199.52856 
C 1048.045971 199.52856 1051.255331 198.1992 1053.621275 195.833255 
C 1055.98722 193.467311 1057.31658 190.257951 1057.31658 186.912 
C 1057.31658 183.566049 1055.98722 180.356689 1053.621275 177.990745 
C 1051.255331 175.6248 1048.045971 174.29544 1044.70002 174.29544 
C 1041.354069 174.29544 1038.144709 175.6248 1035.778765 177.990745 
C 1033.41282 180.356689 1032.08346 183.566049 1032.08346 186.912 
C 1032.08346 190.257951 1033.41282 193.467311 1035.778765 195.833255 
C 1038.144709 198.1992 1041.354069 199.52856 1044.70002 199.52856 
z
" clip-path="url(#p4447ea702a)" style="fill: #2bb7c4; stroke: #1b7e88; stroke-width: 1.3; stroke-linejoin: miter"/>
   </g>
   <g id="patch_140">
    <path d="M 1158.24906 199.52856 
C 1161.595011 199.52856 1164.804371 198.1992 1167.170315 195.833255 
C 1169.53626 193.467311 1170.86562 190.257951 1170.86562 186.912 
C 1170.86562 183.566049 1169.53626 180.356689 1167.170315 177.990745 
C 1164.804371 175.6248 1161.595011 174.29544 1158.24906 174.29544 
C 1154.903109 174.29544 1151.693749 175.6248 1149.327805 177.990745 
C 1146.96186 180.356689 1145.6325 183.566049 1145.6325 186.912 
C 1145.6325 190.257951 1146.96186 193.467311 1149.327805 195.833255 
C 1151.693749 198.1992 1154.903109 199.52856 1158.24906 199.52856 
z
" clip-path="url(#p4447ea702a)" style="fill: #2bb7c4; stroke: #1b7e88; stroke-width: 1.3; stroke-linejoin: miter"/>
   </g>
   <g id="patch_141">
    <path d="M 1271.7981 199.52856 
C 1275.144051 199.52856 1278.353411 198.1992 1280.719355 195.833255 
C 1283.0853 193.467311 1284.41466 190.257951 1284.41466 186.912 
C 1284.41466 183.566049 1283.0853 180.356689 1280.719355 177.990745 
C 1278.353411 175.6248 1275.144051 174.29544 1271.7981 174.29544 
C 1268.452149 174.29544 1265.242789 175.6248 1262.876845 177.990745 
C 1260.5109 180.356689 1259.18154 183.566049 1259.18154 186.912 
C 1259.18154 190.257951 1260.5109 193.467311 1262.876845 195.833255 
C 1265.242789 198.1992 1268.452149 199.52856 1271.7981 199.52856 
z
" clip-path="url(#p4447ea702a)" style="fill: #2bb7c4; stroke: #1b7e88; stroke-width: 1.3; stroke-linejoin: miter"/>
   </g>
   <g id="patch_142">
    <path d="M 1385.34714 199.52856 
C 1388.693091 199.52856 1391.902451 198.1992 1394.268395 195.833255 
C 1396.63434 193.467311 1397.9637 190.257951 1397.9637 186.912 
C 1397.9637 183.566049 1396.63434 180.356689 1394.268395 177.990745 
C 1391.902451 175.6248 1388.693091 174.29544 1385.34714 174.29544 
C 1382.001189 174.29544 1378.791829 175.6248 1376.425885 177.990745 
C 1374.05994 180.356689 1372.73058 183.566049 1372.73058 186.912 
C 1372.73058 190.257951 1374.05994 193.467311 1376.425885 195.833255 
C 1378.791829 198.1992 1382.001189 199.52856 1385.34714 199.52856 
z
" clip-path="url(#p4447ea702a)" style="fill: #2bb7c4; stroke: #1b7e88; stroke-width: 1.3; stroke-linejoin: miter"/>
   </g>
   <g id="patch_143">
    <path d="M 1498.89618 199.52856 
C 1502.242131 199.52856 1505.451491 198.1992 1507.817435 195.833255 
C 1510.18338 193.467311 1511.51274 190.257951 1511.51274 186.912 
C 1511.51274 183.566049 1510.18338 180.356689 1507.817435 177.990745 
C 1505.451491 175.6248 1502.242131 174.29544 1498.89618 174.29544 
C 1495.550229 174.29544 1492.340869 175.6248 1489.974925 177.990745 
C 1487.60898 180.356689 1486.27962 183.566049 1486.27962 186.912 
C 1486.27962 190.257951 1487.60898 193.467311 1489.974925 195.833255 
C 1492.340869 198.1992 1495.550229 199.52856 1498.89618 199.52856 
z
" clip-path="url(#p4447ea702a)" style="fill: #2bb7c4; stroke: #1b7e88; stroke-width: 1.3; stroke-linejoin: miter"/>
   </g>
   <g id="patch_144">
    <path d="M 1612.44522 199.52856 
C 1615.791171 199.52856 1619.000531 198.1992 1621.366475 195.833255 
C 1623.73242 193.467311 1625.06178 190.257951 1625.06178 186.912 
C 1625.06178 183.566049 1623.73242 180.356689 1621.366475 177.990745 
C 1619.000531 175.6248 1615.791171 174.29544 1612.44522 174.29544 
C 1609.099269 174.29544 1605.889909 175.6248 1603.523965 177.990745 
C 1601.15802 180.356689 1599.82866 183.566049 1599.82866 186.912 
C 1599.82866 190.257951 1601.15802 193.467311 1603.523965 195.833255 
C 1605.889909 198.1992 1609.099269 199.52856 1612.44522 199.52856 
z
" clip-path="url(#p4447ea702a)" style="fill: #2bb7c4; stroke: #1b7e88; stroke-width: 1.3; stroke-linejoin: miter"/>
   </g>
   <g id="patch_145">
    <path d="M 1725.99426 199.52856 
C 1729.340211 199.52856 1732.549571 198.1992 1734.915515 195.833255 
C 1737.28146 193.467311 1738.61082 190.257951 1738.61082 186.912 
C 1738.61082 183.566049 1737.28146 180.356689 1734.915515 177.990745 
C 1732.549571 175.6248 1729.340211 174.29544 1725.99426 174.29544 
C 1722.648309 174.29544 1719.438949 175.6248 1717.073005 177.990745 
C 1714.70706 180.356689 1713.3777 183.566049 1713.3777 186.912 
C 1713.3777 190.257951 1714.70706 193.467311 1717.073005 195.833255 
C 1719.438949 198.1992 1722.648309 199.52856 1725.99426 199.52856 
z
" clip-path="url(#p4447ea702a)" style="fill: #2bb7c4; stroke: #1b7e88; stroke-width: 1.3; stroke-linejoin: miter"/>
   </g>
   <g id="patch_146">
    <path d="M 86.262012 355.973904 
C 89.607963 355.973904 92.817323 354.644544 95.183267 352.278599 
C 97.549212 349.912655 98.878572 346.703295 98.878572 343.357344 
C 98.878572 340.011393 97.549212 336.802033 95.183267 334.436089 
C 92.817323 332.070144 89.607963 330.740784 86.262012 330.740784 
C 82.916061 330.740784 79.706701 332.070144 77.340757 334.436089 
C 74.974812 336.802033 73.645452 340.011393 73.645452 343.357344 
C 73.645452 346.703295 74.974812 349.912655 77.340757 352.278599 
C 79.706701 354.644544 82.916061 355.973904 86.262012 355.973904 
z
" clip-path="url(#p4447ea702a)" style="fill: #2bb7c4; stroke: #1b7e88; stroke-width: 1.3; stroke-linejoin: miter"/>
   </g>
   <g id="text_13">
    <!-- + -->
    <g style="fill: #ffffff" transform="translate(471.508023 190.709505) scale(0.13 -0.13)">
     <defs>
      <path id="DejaVuSans-Bold-e" d="M 3053 4013 
L 3053 2375 
L 4684 2375 
L 4684 1638 
L 3053 1638 
L 3053 0 
L 2309 0 
L 2309 1638 
L 678 1638 
L 678 2375 
L 2309 2375 
L 2309 4013 
L 3053 4013 
z
" transform="scale(0.015625)"/>
     </defs>
     <use xlink:href="#DejaVuSans-Bold-e"/>
    </g>
   </g>
   <g id="text_14">
    <!-- + -->
    <g style="fill: #ffffff" transform="translate(585.057063 190.709505) scale(0.13 -0.13)">
     <use xlink:href="#DejaVuSans-Bold-e"/>
    </g>
   </g>
   <g id="text_15">
    <!-- + -->
    <g style="fill: #ffffff" transform="translate(698.606103 190.709505) scale(0.13 -0.13)">
     <use xlink:href="#DejaVuSans-Bold-e"/>
    </g>
   </g>
   <g id="text_16">
    <!-- + -->
    <g style="fill: #ffffff" transform="translate(812.155143 190.709505) scale(0.13 -0.13)">
     <use xlink:href="#DejaVuSans-Bold-e"/>
    </g>
   </g>
   <g id="text_17">
    <!-- + -->
    <g style="fill: #ffffff" transform="translate(925.704183 190.709505) scale(0.13 -0.13)">
     <use xlink:href="#DejaVuSans-Bold-e"/>
    </g>
   </g>
   <g id="text_18">
    <!-- + -->
    <g style="fill: #ffffff" transform="translate(1039.253223 190.709505) scale(0.13 -0.13)">
     <use xlink:href="#DejaVuSans-Bold-e"/>
    </g>
   </g>
   <g id="text_19">
    <!-- + -->
    <g style="fill: #ffffff" transform="translate(1152.802263 190.709505) scale(0.13 -0.13)">
     <use xlink:href="#DejaVuSans-Bold-e"/>
    </g>
   </g>
   <g id="text_20">
    <!-- + -->
    <g style="fill: #ffffff" transform="translate(1266.351303 190.709505) scale(0.13 -0.13)">
     <use xlink:href="#DejaVuSans-Bold-e"/>
    </g>
   </g>
   <g id="text_21">
    <!-- + -->
    <g style="fill: #ffffff" transform="translate(1379.900343 190.709505) scale(0.13 -0.13)">
     <use xlink:href="#DejaVuSans-Bold-e"/>
    </g>
   </g>
   <g id="text_22">
    <!-- + -->
    <g style="fill: #ffffff" transform="translate(1493.449383 190.709505) scale(0.13 -0.13)">
     <use xlink:href="#DejaVuSans-Bold-e"/>
    </g>
   </g>
   <g id="text_23">
    <!-- + -->
    <g style="fill: #ffffff" transform="translate(1606.998423 190.709505) scale(0.13 -0.13)">
     <use xlink:href="#DejaVuSans-Bold-e"/>
    </g>
   </g>
   <g id="text_24">
    <!-- + -->
    <g style="fill: #ffffff" transform="translate(1720.547463 190.709505) scale(0.13 -0.13)">
     <use xlink:href="#DejaVuSans-Bold-e"/>
    </g>
   </g>
   <g id="text_25">
    <!-- + -->
    <g style="fill: #ffffff" transform="translate(80.815215 347.154849) scale(0.13 -0.13)">
     <use xlink:href="#DejaVuSans-Bold-e"/>
    </g>
   </g>
  </g>
 </g>
 <defs>
  <clipPath id="p4447ea702a">
   <rect x="10.562652" y="1.86912" width="2091.405096" height="370.08576"/>
  </clipPath>
 </defs>
</svg>
